<svg id="a79d34fd-aa96-4a00-a851-201bdb5d5401" data-name="Capa 1" xmlns="http://www.w3.org/2000/svg" width="5cm" height="5cm" viewBox="0 0 141.732 141.732">
  <path d="M97.861,100.4,88.394,41.055a.9.9,0,0,0-.888-.756H81.855V32.324a.9.9,0,0,0-.9-.9H61.4a.9.9,0,0,0-.9.9V40.3H55.3a.9.9,0,0,0-.888.747l-.2,1.181c-2.626-.359-10-.709-12.888,6.019-1.606,3.732-1.219,8.532-.85,13.181.415,5.244.812,10.2-1.512,13.256C34.649,80.362,23.414,78.321,23.3,78.3L22.97,80.06a29.781,29.781,0,0,0,5.036.416c4.016,0,9.421-.813,12.388-4.715,2.73-3.6,2.3-9.128,1.871-14.485-.35-4.432-.719-9.005.708-12.331,2.429-5.66,8.693-5.3,10.951-4.97L44.5,100.384a.879.879,0,0,0,.2.728.9.9,0,0,0,.681.321H60.491v7.975a.9.9,0,0,0,.9.9H80.948a.9.9,0,0,0,.9-.9v-7.975H96.954a.89.89,0,0,0,.681-.312A.852.852,0,0,0,97.861,100.4ZM90.2,63.742,53.159,59.518l1.106-6.624,34.828,3.893Zm.293,1.842,1.1,6.87L51.761,67.909l1.1-6.624Zm1.389,8.7,1.1,6.878L50.362,76.309l1.106-6.624ZM93.269,83l1.1,6.87-45.4-5.178,1.105-6.624Zm1.389,8.712,1.1,6.879-48.2-5.5,1.105-6.633ZM88.8,54.945,54.567,51.118l1.1-6.614,32.041,3.657ZM62.306,33.222H80.069V40.3H62.306Zm-.9,8.863H86.75l.68,4.243L55.975,42.737l.113-.652ZM47.263,94.857l41.953,4.781H46.46ZM80.069,108.51H62.306v-7.077H80.069Z" style="fill: #00b8ab"/>
</svg>
