<svg id="a407596a-6dda-443b-8920-c441c414822c" data-name="Capa 1" xmlns="http://www.w3.org/2000/svg" width="5cm" height="5cm" viewBox="0 0 141.732 141.732">
  <g>
    <path d="M99.742,57.738l-1.559-1.417a3.628,3.628,0,0,1-1.011-3.78l.642-2.012a5.245,5.245,0,0,0-3.874-6.718l-2.06-.454a3.639,3.639,0,0,1-2.768-2.768l-.454-2.06a5.246,5.246,0,0,0-6.718-3.874l-2.012.642a3.642,3.642,0,0,1-3.78-1.011L74.74,32.737a5.241,5.241,0,0,0-7.748,0L65.575,34.3a3.654,3.654,0,0,1-3.78,1.011l-2.012-.643a5.247,5.247,0,0,0-6.718,3.874l-.454,2.06a3.639,3.639,0,0,1-2.768,2.768l-2.06.454a5.246,5.246,0,0,0-3.874,6.718l.642,2.013A3.641,3.641,0,0,1,43.54,56.33l-1.559,1.418a5.243,5.243,0,0,0,0,7.748l1.559,1.417a3.651,3.651,0,0,1,1.011,3.779l-.642,2.013a5.246,5.246,0,0,0,3.874,6.718l2.06.454a3.639,3.639,0,0,1,2.768,2.768l.454,2.06a5.339,5.339,0,0,0,.481,1.313l-4.4,19.692a1.815,1.815,0,0,0,.737,1.965,1.566,1.566,0,0,0,1.843-.094l7.323-5.518,4.318,8.135a1.622,1.622,0,0,0,1.625.869A1.838,1.838,0,0,0,66.5,109.6l3.893-17.424a3.848,3.848,0,0,0,.472.019,2.415,2.415,0,0,0,.255-.009l3.922,17.489a1.814,1.814,0,0,0,1.511,1.465,1.849,1.849,0,0,0,.218.009,1.534,1.534,0,0,0,.812-.236,1.7,1.7,0,0,0,.6-.642l4.318-8.136,7.322,5.509a1.579,1.579,0,0,0,1.843.094,1.823,1.823,0,0,0,.737-1.965L88.025,86.255a5.179,5.179,0,0,0,.633-1.588l.454-2.06a3.639,3.639,0,0,1,2.768-2.768l2.06-.454a5.246,5.246,0,0,0,3.874-6.718l-.642-2.012a3.644,3.644,0,0,1,1.011-3.78l1.559-1.417a5.212,5.212,0,0,0,0-7.72Zm-34.819,51.5a.4.4,0,0,1-.123.218l-.009-.01-4.763-8.967a.785.785,0,0,0-.538-.406.821.821,0,0,0-.662.142L50.75,106.3a.009.009,0,0,0-.01.009.337.337,0,0,1-.028-.246l4.129-18.444a5.626,5.626,0,0,0,.728.511,5.261,5.261,0,0,0,4.214.453l2.012-.661a3.646,3.646,0,0,1,3.78,1.011l1.417,1.559a5.183,5.183,0,0,0,1.833,1.294Zm25.9-3.09a.358.358,0,0,1-.019.246l-.009-.009L82.715,100.3a.784.784,0,0,0-.661-.142.807.807,0,0,0-.539.406l-4.762,8.967a.01.01,0,0,1-.01.01.291.291,0,0,1-.123-.208L72.709,91.858a5.13,5.13,0,0,0,2.031-1.38l1.417-1.559a3.649,3.649,0,0,1,3.78-1.011l2.013.643a5.209,5.209,0,0,0,4.752-.813ZM98.655,64.3,97.1,65.713a5.251,5.251,0,0,0-1.465,5.461l.643,2.013A3.621,3.621,0,0,1,93.6,77.826l-2.06.454a5.256,5.256,0,0,0-4,4l-.255,1.152-.2.908a3.66,3.66,0,0,1-.784,1.587,3.788,3.788,0,0,1-.945.775,3.6,3.6,0,0,1-2.92.312l-2-.643c-.123-.038-.246-.076-.369-.1a5.256,5.256,0,0,0-4.507,1.011,5.454,5.454,0,0,0-.595.558L73.55,89.392a3.679,3.679,0,0,1-1.2.869,3.6,3.6,0,0,1-1.484.312h-.113a3.494,3.494,0,0,1-1.559-.407,3.568,3.568,0,0,1-1-.774l-1.417-1.559a5.066,5.066,0,0,0-.709-.643,5.247,5.247,0,0,0-3.175-1.068,5.123,5.123,0,0,0-1.077.114,2.955,2.955,0,0,0-.5.132l-2.012.643a3.574,3.574,0,0,1-2.91-.312,3.636,3.636,0,0,1-1.115-.992,3.587,3.587,0,0,1-.624-1.38l-.246-1.134-.2-.926a5.26,5.26,0,0,0-4-4l-2.06-.453a3.621,3.621,0,0,1-2.674-4.639l.643-2.013A5.235,5.235,0,0,0,44.655,65.7L43.1,64.286a3.639,3.639,0,0,1,0-5.367L44.655,57.5a5.25,5.25,0,0,0,1.465-5.471l-.643-2.013a3.621,3.621,0,0,1,2.674-4.639l2.06-.453a5.246,5.246,0,0,0,4-4l.453-2.06a3.59,3.59,0,0,1,1.73-2.362A3.536,3.536,0,0,1,59.3,36.2l2.012.642a5.232,5.232,0,0,0,5.462-1.464l1.417-1.559a3.639,3.639,0,0,1,5.367,0l1.417,1.559a5.265,5.265,0,0,0,5.471,1.464L82.46,36.2A3.621,3.621,0,0,1,87.1,38.869l.454,2.06a5.244,5.244,0,0,0,4,4l2.059.453a3.625,3.625,0,0,1,2.363,1.729,3.536,3.536,0,0,1,.311,2.91l-.642,2.013A5.253,5.253,0,0,0,97.106,57.5l1.559,1.417a3.64,3.64,0,0,1-.01,5.377Z" style="fill: #00b8ab"/>
    <path d="M70.913,41.571A20.315,20.315,0,1,0,91.228,61.886,20.339,20.339,0,0,0,70.913,41.571Zm0,39a18.7,18.7,0,1,1,18.7-18.7A18.724,18.724,0,0,1,70.913,80.576Z" style="fill: #00b8ab"/>
    <path d="M64.441,52.881h-.548l-.435.331A12.986,12.986,0,0,1,61.54,54.4a12.388,12.388,0,0,1-2.249.888l-1.162.34v5.934l1.8-.217a8.691,8.691,0,0,0,1.153-.227c.122-.038.255-.066.378-.1V72.138h6.68V52.881h-3.7Zm2.088,17.641H63.08V58.39a3.661,3.661,0,0,1-.671.473,7.389,7.389,0,0,1-.822.406,5.919,5.919,0,0,1-.907.3,6.656,6.656,0,0,1-.926.18V56.84a14.551,14.551,0,0,0,2.533-1A14.944,14.944,0,0,0,64.441,54.5h2.088Z" style="fill: #00b8ab"/>
    <path d="M76.97,52.966a6.681,6.681,0,0,0-5.707,2.816c-1.219,1.72-1.814,4.063-1.814,7.153,0,8.249,4.516,9.477,7.209,9.477a6.565,6.565,0,0,0,5.6-2.806,12.138,12.138,0,0,0,1.786-7.03c0-3.024-.538-5.282-1.644-6.907A6.268,6.268,0,0,0,76.97,52.966ZM80.948,68.68a4.906,4.906,0,0,1-4.28,2.126q-5.6,0-5.6-7.862a10.691,10.691,0,0,1,1.511-6.217,5.047,5.047,0,0,1,4.394-2.135q5.471,0,5.471,7.993A10.556,10.556,0,0,1,80.948,68.68Z" style="fill: #00b8ab"/>
    <path d="M76.819,57.218q-2.24,0-2.239,5.632,0,5.3,2.2,5.3,2.14,0,2.145-5.471Q78.913,57.223,76.819,57.218Zm-.066,9.251c-.17-.255-.558-1.115-.558-3.619,0-2.674.4-3.619.586-3.921a8.545,8.545,0,0,1,.52,3.76C77.3,65.259,76.923,66.185,76.753,66.469Z" style="fill: #00b8ab"/>
  </g>
</svg>
