<svg id="bd8a2b12-11d7-4e52-b21d-c5a1435bd330" data-name="Capa 1" xmlns="http://www.w3.org/2000/svg" width="5cm" height="5cm" viewBox="0 0 141.732 141.732">
  <path d="M118.8,72.444,104.428,44.088c-.415-.812-.8-.945-1.625-.529q-5.8,2.934-11.584,5.868a.981.981,0,0,0-.482,1.559L92.372,54.2l-.5.227c-.926.416-1.8.813-2.684,1.191a.349.349,0,0,1-.17-.057c-2.711-1.616-4.979-2.986-7.294-4.394a4.431,4.431,0,0,0-2.2-.642,8.358,8.358,0,0,0-4.138,1.1.269.269,0,0,1-.34-.009,14.322,14.322,0,0,0-4.5-1.767,9.426,9.426,0,0,0-2.882-.236,20.937,20.937,0,0,0-3.42.812l-.331.1A58.247,58.247,0,0,0,54.6,54.274a.861.861,0,0,1-.312.113c-1.823-.567-3.685-1.171-5.329-1.7l-1.03-.331.142-.34.879-2.183a.989.989,0,0,0-.643-1.55q-4.761-1.912-9.524-3.817l-2.447-.983a1.03,1.03,0,0,0-1.625.69L30.057,55.767q-3.6,8.914-7.163,17.839a1.224,1.224,0,0,0-.094.955,1.343,1.343,0,0,0,.794.6c1.049.416,2.1.832,3.146,1.257l3.014,1.209Q32.716,78.822,35.679,80a.951.951,0,0,0,1.408-.605l.283-.708.028-.076c.1-.264.208-.52.312-.784.151-.359.3-.728.454-1.1l.094-.227.312.113,3.657,1.361a1.583,1.583,0,0,0-.265.34,4.23,4.23,0,0,0,.35,5.131,6.789,6.789,0,0,0,3.581,2.164,5.82,5.82,0,0,0,2.494.066.133.133,0,0,1,.01.066A5.407,5.407,0,0,0,54.009,90.4a15.875,15.875,0,0,0,1.616-.1c.161-.019.331-.028.5-.047A5.6,5.6,0,0,0,59.055,93.7a6.052,6.052,0,0,0,4.517.709l.047.1c.094.2.189.377.283.557a6.005,6.005,0,0,0,3.3,3.071,5.559,5.559,0,0,0,1.861.321,6.37,6.37,0,0,0,3.525-1.153c.5-.33.983-.7,1.445-1.048l.038-.029c.208-.16.407-.312.614-.463l1.55-1.153.227.341c.3.434.576.85.841,1.285a2.279,2.279,0,0,0,1.266.982,3.353,3.353,0,0,0,3.1-.415,7.8,7.8,0,0,0,2.5-2.467c1.691.256,4.006-.5,5.169-3.448a4.807,4.807,0,0,0,3.581-1.125A3.8,3.8,0,0,0,94.6,87.279a4.409,4.409,0,0,0,.018-.87v-.122a8.322,8.322,0,0,0,3.8-2.145,2.813,2.813,0,0,0,.907-2.5,4.711,4.711,0,0,0-.274-.945c-.019-.066-.047-.132-.066-.2l5.234-2.872.879,1.71c.444.87.832.992,1.71.548l11.509-5.839a1.13,1.13,0,0,0,.652-.643A1.344,1.344,0,0,0,118.8,72.444ZM76.375,90.009a3.8,3.8,0,0,1,1.89-1.36,1.5,1.5,0,0,1,.425-.085c.217,0,.368.1.6.434l.227.3q1.46,1.956,2.929,3.893c.123.16.114.208.019.33A6.462,6.462,0,0,1,80.334,95.4a1.441,1.441,0,0,1-.435.142c-.047.009-.085.019-.123.028a1.192,1.192,0,0,1-1.058-.529c-.576-.907-1.181-1.8-1.757-2.655-.208-.3-.407-.605-.615-.907A1.13,1.13,0,0,1,76.375,90.009Zm3.921-5.1a2.5,2.5,0,0,1,1.975-1,1.7,1.7,0,0,1,.586.094,1.189,1.189,0,0,1,.548.359c.718.935,1.426,1.89,2.135,2.835.614.822,1.229,1.634,1.852,2.447a.7.7,0,0,1,.151.633,3.108,3.108,0,0,1-2.778,2.22.971.971,0,0,1-.926-.51c-.774-1.077-1.587-2.154-2.371-3.2-.331-.435-.652-.869-.974-1.3A2.242,2.242,0,0,1,80.3,84.907Zm7.361-2.154a2.172,2.172,0,0,1,2.428.2,3.088,3.088,0,0,1,.624.747,1.748,1.748,0,0,0,.151.217c.595.841,1.219,1.739,1.805,2.655a1.152,1.152,0,0,1,.066.473v.085c0,.009,0,.066-.095.207a3.774,3.774,0,0,1-2.475,1.692,1.318,1.318,0,0,1-1.285-.482c-.548-.756-1.115-1.5-1.682-2.258l-.019-.029c-.416-.557-.832-1.1-1.247-1.663a.214.214,0,0,1-.029-.085A4.889,4.889,0,0,1,87.657,82.753Zm4.422-.369a5.882,5.882,0,0,1,3.76-2.239,1.089,1.089,0,0,1,.7.123,2.622,2.622,0,0,1,.954,1.587,1.38,1.38,0,0,1-.586,1.115A6.621,6.621,0,0,1,94.318,84.4l-.246.066c-.491.142-.491.142-.67-.123-.067-.1-.152-.227-.265-.378-.331-.444-.718-.973-1.058-1.493C92.069,82.469,92.069,82.413,92.079,82.384Zm3.033-4h0a7.727,7.727,0,0,0-4.4,2.759,4.053,4.053,0,0,0-3.421-.264,6.024,6.024,0,0,0-2.579,2.079,3.144,3.144,0,0,0-2-.9,4.05,4.05,0,0,0-2.5.529,3.739,3.739,0,0,0-2.013,4.158,5.434,5.434,0,0,0-3.373,2.277,2.848,2.848,0,0,0-.01,3.449l.388.576c-.284.208-.558.416-.841.624-.86.642-1.758,1.313-2.646,1.946a5.216,5.216,0,0,1-1.351.69,3.514,3.514,0,0,1-4.375-1.446,9.232,9.232,0,0,1-.491-.841c-.085-.17-.18-.34-.274-.5-.057-.094-.066-.1.075-.245,1.323-1.276,2.627-2.57,3.94-3.855l1.021-1.011c.066-.067.132-.142.217-.227l.34-.359-1.417-1.181-2.646,2.6c-.274.265-.548.529-.831.813-.661.642-1.342,1.3-1.994,1.984a2.245,2.245,0,0,1-1.937.652,5.379,5.379,0,0,1-2.957-1.247,3.469,3.469,0,0,1-1.191-2.041.444.444,0,0,1,.085-.161c1.673-1.71,3.345-3.411,5.018-5.121l1.379-1.4c.095-.094.18-.189.293-.3l.312-.331L63.647,80.8l-.718.708c-.359.36-.727.709-1.077,1.078-.926.935-1.843,1.88-2.769,2.825l-.217.217c-.784.8-1.578,1.606-2.362,2.419l-.028.038a.84.84,0,0,1-.152.132,6.055,6.055,0,0,1-4.081-.047,3.523,3.523,0,0,1-2.041-3.25.523.523,0,0,1,.16-.274q4.11-3.94,8.23-7.871a1.6,1.6,0,0,1,.18-.142l.359-.293-1.314-1.408-.793.756c-.5.472-.983.935-1.474,1.408l-2.1,2q-2.268,2.169-4.535,4.328a2.469,2.469,0,0,1-2.1.453,4.95,4.95,0,0,1-2.806-1.285,2.535,2.535,0,0,1-.6-3.08,1.126,1.126,0,0,1,.236-.312c1.247-1.257,2.5-2.523,3.742-3.78l.2-.207q3.132-3.16,6.255-6.322a5.046,5.046,0,0,1,1.644-.992c.189-.085.388-.17.577-.264,2.948-1.446,6-2.92,9.08-4.375.992-.473,2.022-.917,3.033-1.351.463-.2.917-.4,1.38-.6a1.551,1.551,0,0,1,1.568.227,3.469,3.469,0,0,1,1.625,2.107c.057.217.123.425.189.623a6.033,6.033,0,0,1,.2.681,3.741,3.741,0,0,0,2.91,2.844c1.937.576,5.48-.954,6.321-2.74a3.514,3.514,0,0,0,.152-3.033c-.35-.813-.709-1.616-1.059-2.429-.576-1.323-1.171-2.683-1.757-4.044A3.446,3.446,0,0,0,78.68,54.2c-.453-.368-.916-.727-1.408-1.115l-.236-.189a5.114,5.114,0,0,1,3-.444,1.763,1.763,0,0,1,.586.227l.964.577c2.145,1.285,4.365,2.607,6.529,3.949a1.723,1.723,0,0,0,1.833.114c.8-.388,1.635-.756,2.457-1.106l.028-.009c.255-.114.511-.227.766-.331L103.37,75.912l-.085.047-.652.369-.444.245c-1.408.775-2.816,1.55-4.224,2.306a.5.5,0,0,1-.113.019A3,3,0,0,0,95.112,78.387ZM47.225,54.094l.359.114q.652.2,1.276.4l1.549.5c1.191.377,2.419.774,3.629,1.152a1.223,1.223,0,0,0,.86-.066,54.808,54.808,0,0,1,7.511-3.231c1.834-.6,3.676-1.115,5.481-1.522a6.081,6.081,0,0,1,2.948.388,17.929,17.929,0,0,1,6.879,4.006,1.082,1.082,0,0,1,.236.369c.51,1.162,1.02,2.324,1.53,3.5l.067.151c.4.916.8,1.833,1.2,2.74A1.6,1.6,0,0,1,80.5,64.46a4.428,4.428,0,0,1-4,1.493A1.854,1.854,0,0,1,74.9,64.422c-.1-.453-.255-.888-.4-1.323l-.17-.51A5.2,5.2,0,0,0,71.5,59.622a3.2,3.2,0,0,0-2.938.076c-3.553,1.634-7.257,3.354-11,5.1-1.36.643-2.7,1.313-3.949,1.946a3.393,3.393,0,0,0-.917.662c-3.071,3.08-6.047,6.085-8.844,8.92-.161.17-.236.179-.454.094-.992-.387-2.012-.756-3-1.124l-.028-.01-1.247-.453c-.067-.029-.133-.048-.2-.076Zm-.255-4.346L35.65,78,24.869,73.682,36.189,45.43Zm69.865,22.9-10.366,5.254L92.712,50.759l10.365-5.253Z" style="fill: #00b8ab"/>
</svg>
