<svg id="f6e6e729-3559-4720-9a5a-7ccddfcd116b" data-name="Capa 1" xmlns="http://www.w3.org/2000/svg" width="5cm" height="5cm" viewBox="0 0 141.732 141.732">
  <g>
    <path d="M88.649,65.537a.883.883,0,0,0-.633-.586l-12.2-3.033L69.165,51.25a.891.891,0,0,0-.756-.415.916.916,0,0,0-.755.415L60.992,61.909l-12.2,3.033a.878.878,0,0,0-.463,1.427L56.409,76l-.878,12.538a.915.915,0,0,0,.359.785.9.9,0,0,0,.519.17.8.8,0,0,0,.331-.066l11.669-4.706L80.06,89.424a.885.885,0,0,0,.85-.1.9.9,0,0,0,.369-.785L80.4,76l8.079-9.628A.836.836,0,0,0,88.649,65.537Zm-9.836,9.6a.96.96,0,0,0-.208.633l.8,11.48L68.74,82.942a.861.861,0,0,0-.661,0L57.411,87.25l.8-11.48a.911.911,0,0,0-.2-.633l-7.4-8.806,11.169-2.778a.881.881,0,0,0,.538-.4L68.409,53.4,74.5,63.146a.878.878,0,0,0,.539.4l11.168,2.788Z" style="fill: #00b8ab"/>
    <path d="M98.3,70.876a29.877,29.877,0,1,0-29.877,29.877A29.912,29.912,0,0,0,98.3,70.876Zm-29.887,28.1a28.106,28.106,0,1,1,28.111-28.1A28.13,28.13,0,0,1,68.409,98.976Z" style="fill: #00b8ab"/>
    <path d="M100.98,45.43V45.3h-.114A37.522,37.522,0,0,0,73.313,33.26c-.859,0-1.719.028-2.57.085-.774-.047-1.559-.076-2.343-.076a37.6,37.6,0,0,0,.009,75.2c.851,0,1.7-.028,2.542-.085.784.057,1.569.076,2.372.076A37.574,37.574,0,0,0,100.98,45.43Zm2.607,12.151h3a35.252,35.252,0,0,1,2.343,9.43h-3.127A37.017,37.017,0,0,0,103.587,57.581Zm2.24-1.767H102.86a36.988,36.988,0,0,0-5.367-8.74h2.579A35.626,35.626,0,0,1,105.827,55.814ZM98.391,45.3h-2.3v.16a37.784,37.784,0,0,0-12.075-8.787A35.771,35.771,0,0,1,98.391,45.3ZM68.409,106.7a36.306,36.306,0,0,1-4.072-.227,35.228,35.228,0,0,1-6.652-1.408,35.83,35.83,0,0,1-.17-68.315,35.059,35.059,0,0,1,6.624-1.436h.009a35.351,35.351,0,0,1,4.261-.255c.785,0,1.569.028,2.344.076a35.823,35.823,0,0,1,.2,71.48C70.11,106.668,69.26,106.7,68.409,106.7Zm15.78-1.7a36.655,36.655,0,0,0,7.02-4.242h1.834A35.408,35.408,0,0,1,84.189,105Zm11.3-6.019H93.354A37.617,37.617,0,0,0,99.43,92.1h2.712A35.588,35.588,0,0,1,95.49,98.976Zm7.89-8.645h-2.8a37.516,37.516,0,0,0,3.978-9.071h3.052A36.388,36.388,0,0,1,103.38,90.331Zm4.714-10.857h-3.07a37.426,37.426,0,0,0,.992-8.6c0-.7-.019-1.4-.057-2.079h3.128q.055,1.02.056,2.069A35.429,35.429,0,0,1,108.094,79.474Z" style="fill: #00b8ab"/>
  </g>
</svg>
