<?xml version="1.0" encoding="utf-8"?>
<!-- Generator: Adobe Illustrator 26.1.0, SVG Export Plug-In . SVG Version: 6.00 Build 0)  -->
<svg version="1.1" id="Capa_1" xmlns="http://www.w3.org/2000/svg" xmlns:xlink="http://www.w3.org/1999/xlink" x="0px" y="0px"
	 viewBox="0 0 141.7 141.7" style="enable-background:new 0 0 141.7 141.7;" xml:space="preserve">
<style type="text/css">
	.st0{fill:#00B8AB;}
	.st1{fill:none;stroke:#00B8AB;stroke-width:4;stroke-linecap:round;stroke-linejoin:round;}
	.st2{fill:none;stroke:#00B8AB;stroke-width:2.59;stroke-linecap:round;stroke-linejoin:round;}
</style>
<path class="st0" d="M106.2,29.5c0.7,0,1.2,0.5,1.2,1.2v80.4c0,0.7-0.5,1.2-1.2,1.2H35.5c-0.7,0-1.2-0.5-1.2-1.2V30.6
	c0-0.7,0.5-1.2,1.2-1.2l0,0L106.2,29.5 M106.2,26.9H35.5c-2.1,0-3.8,1.7-3.8,3.8l0,0v80.4c0,2.1,1.7,3.8,3.8,3.8c0,0,0,0,0,0h70.8
	c2.1,0,3.8-1.7,3.8-3.8l0,0V30.6C110,28.6,108.3,26.9,106.2,26.9C106.2,26.9,106.2,26.9,106.2,26.9z"/>
<polyline class="st1" points="41.4,49.7 46.3,54.5 58.7,42.1 "/>
<line class="st2" x1="66.6" y1="49.7" x2="100.3" y2="49.7"/>
<polyline class="st1" points="41.4,72.2 46.3,77.1 58.7,64.7 "/>
<line class="st2" x1="66.6" y1="72.2" x2="100.3" y2="72.2"/>
<polyline class="st1" points="41.4,94.8 46.3,99.6 58.7,87.2 "/>
<line class="st2" x1="66.6" y1="94.8" x2="100.3" y2="94.8"/>
</svg>
