<?xml version="1.0" encoding="utf-8"?>
<!-- Generator: Adobe Illustrator 25.2.0, SVG Export Plug-In . SVG Version: 6.00 Build 0)  -->
<svg version="1.1" id="Capa_1" xmlns="http://www.w3.org/2000/svg" xmlns:xlink="http://www.w3.org/1999/xlink" x="0px" y="0px"
	 viewBox="0 0 1000 1000" style="enable-background:new 0 0 1000 1000;" xml:space="preserve">
<style type="text/css">
	.st0{fill:#FA730B;}
	.st1{fill:#00B9AC;}
</style>
<path class="st0" d="M816.5,784.8c-28.8-1.1-54.5,4.2-80,11.5c-25.7,7.3-50.2,17.8-74.6,28.4c-3.7,1.6-7.2,3.6-10.8,5.4
	c-3.6,1.7-6.8,1.5-9.6-1.6c-2.7-2.9-5.9-5.5-8.4-8.6c-2.9-3.6-6.3-3.8-10.3-2.6c-12.2,3.4-24.5,6.7-36.6,10.1
	c-2.5,0.7-4.2,0.4-6.1-1.4c-7.7-7.8-15.4-15.4-23.2-23.2c-0.8-0.8-1.6-1.6-2.3-2.5c-3.7-5.1-3.6-5.6,2.6-7.4
	c11-3.1,21.9-6.2,32.9-9.1c3.9-1,3.6-2.9,1.2-4.8c-7.2-6-8.6-14.8-10.8-23.1c-6.3-23.2-12.5-46.5-18.6-69.8
	c-7.6-28.8-15.8-57.5-23.1-86.4c-5.7-22.7-12.4-45.2-18.5-67.8c-4.5-16.6-8.6-33.3-13.1-49.8c-5.8-21.6-11.8-43-17.6-64.6
	c-6.2-23.1-12-46.3-18.2-69.4c-5.9-22.2-12-44.3-18.1-66.4c-2.2-8.2-4.4-16.4-6.5-24.6c-0.7-3-1.2-6.3,1.6-8.5
	c2.6-2.1,5.5-1.6,8.6-0.2c14.9,6.5,30.2,5.3,45.4,1.6c25.6-6.2,49.1-17.8,72.4-29.7c23.2-11.8,46.3-23.7,71.2-31.5
	c24.7-7.7,49.8-13.8,75.5-17.1c21.2-2.8,42.6-4.2,63.8,0.6c11.6,2.6,22.6,6.7,28.9,18.1c2.2,4,3.8,8.2,4.8,12.5
	c4.6,18.8,10.5,37.4,15.1,56.2c5.8,23.9,12.9,47.3,18.6,71.2c3.4,14.3,8,28.4,11.9,42.6c6,22.3,11.8,44.7,17.7,67
	c4.1,15.5,8.4,31,12.5,46.5c5.1,19.1,10.2,38.2,15.3,57.2c4.1,15.2,8.1,30.4,12.2,45.5c4,15,8.1,30,12.2,45
	c3.7,13.6,7.2,27.3,10.9,41c3.4,12.7,6.8,25.3,10.2,38c4.2,16,0.2,26.8-13.3,37.6C926.6,763,908,769,889,774.2
	c-18,5-36.4,7.8-54.9,9.6C827.6,784.5,821,784.5,816.5,784.8z M816.8,772c4.6-0.3,12.1-0.1,19.7-0.9c25.6-2.7,50.8-7.5,74.9-16.7
	c9-3.4,17.4-7.9,24.7-14.5c16.3-14.7,8.2-32-7.8-37.5c-8.9-3.1-18.1-4.2-27.4-4.8c-11.9-0.8-23.8,0.6-35.6,2
	c-13.7,1.6-27.2,4-40.7,7.2c-9.1,2.1-17.9,5.1-27,7.1c-14.8,3.4-28.9,8.6-42.4,15.2c-22.2,10.8-43.8,22.8-66.4,32.9
	c-23.1,10.3-46.7,19.1-72.5,19.6c-1.1,0-2.6-0.3-2.9,1c-0.3,1.3,1.1,2.2,2,3.1c9.3,9.7,19.7,18.4,28.5,28.5c2.9,3.3,6,3.1,9.5,1.2
	c1.1-0.6,2.2-1.4,3.3-1.9c26.3-12,53-22.7,80.9-30.5C762.7,776.1,787.9,771.9,816.8,772z"/>
<path class="st1" d="M309.9,608.4c5.8-12.7,10.5-25.7,15.6-38.5c15.7-39.2,31.5-78.4,47.2-117.6c11.9-29.6,23.8-59.3,35.5-89
	c5.5-14,10.9-28,16.9-41.8c0.5-1.1,0.5-2.9,2.2-2.8c1.7,0.2,1.3,2,1.6,3.1c7.1,26.3,14.2,52.7,21.3,79c6.9,25.4,13.8,50.8,20.6,76.3
	c7.3,27.3,14.4,54.6,21.7,81.9c7.4,27.6,15,55.1,22.4,82.7c6.2,23.1,12.1,46.3,18.2,69.4c3.9,14.6,7.9,29.1,12,43.7
	c1.6,5.7,1.5,6.2-4.1,7.7c-11.2,2.9-22.3,5.8-33.5,8.8c-1.6,0.4-3.1,0.7-4.7,1.2c-2.2,0.7-5.5,0.7-6.1,3.1c-0.5,2,2.5,3.4,4,5
	c8.1,8,16.2,16,24.2,24.1c0.9,0.9,2.7,1.7,1.8,3.5c-0.7,1.4-2.3,0.9-3.5,0.9c-25.8,0-51.5-0.1-77.3,0.1c-4.4,0-4.4-2.3-4.4-5.5
	c0-64.2,0-128.5,0-192.7c0-4.1,0.6-8.2-0.9-13.1c-3.2,5.6-4.6,11-6.3,16.2c-8.1,23.5-16,47.2-23.9,70.8
	c-11.4,33.9-22.8,67.9-34.1,101.9c-1.9,5.8-4,11.5-5.9,17.3c-1.1,3.5-3.1,5.2-7,5.1c-35.9-0.1-71.8-0.2-107.7,0
	c-4.9,0-6.7-2-8.1-6.1c-9-26.8-18.1-53.5-27.2-80.3c-9.3-27.5-18.6-55-28-82.5c-5-14.9-10.1-29.7-15.2-44.5
	c-0.4,0.1-0.8,0.1-1.2,0.2c0,8.9,0,17.8,0,26.7c0,59.7,0.1,119.4,0.1,179.2c0,7.2,0,7.2-7.2,7.2c-39.3,0-78.6,0-117.8,0
	c-6.4,0-6.5-0.1-6.5-6.5c0-169.5,0-339,0-508.5c0-14.4-0.1-14.4,14.5-14.4c36.2,0,72.4,0.1,108.7-0.2c6.2-0.1,9.4,1.5,11.6,7.6
	c5.5,15.1,11.8,29.9,17.8,44.8c9.9,24.5,19.9,49,29.8,73.5c9.4,23.2,18.6,46.5,28,69.7c3.3,8.2,6.6,16.4,9.9,24.5
	c12.7,31.7,25.2,63.3,38,94.9C304.9,599.5,305.9,604.5,309.9,608.4z"/>
</svg>
