<svg id="Capa_1" data-name="Capa 1" xmlns="http://www.w3.org/2000/svg" viewBox="0 0 141.73 141.73"><defs><style>.cls-1{fill:none;stroke:#00b8ab;stroke-linecap:round;stroke-linejoin:round;stroke-width:2.59px;}</style></defs><path class="cls-1" d="M67.58,74.63l10.45,9,34.1-21.77a4.63,4.63,0,0,1,6.25,1.22l.21.3a4.62,4.62,0,0,1-.92,6.32L83.61,96.37A12.43,12.43,0,0,1,71.9,98.32l-31.85-11H23.48a1.2,1.2,0,0,1-1.2-1.2V68.21a1.2,1.2,0,0,1,1.2-1.2H40.05l9.09-6.14a8.39,8.39,0,0,1,5.77-1l37.72,6.67A3.56,3.56,0,0,1,95.57,70h0A4.62,4.62,0,0,1,91,74.63H55.83"/></svg>