<?xml version="1.0" encoding="utf-8"?>
<!-- Generator: Adobe Illustrator 25.2.0, SVG Export Plug-In . SVG Version: 6.00 Build 0)  -->
<svg version="1.1" id="Capa_1" xmlns="http://www.w3.org/2000/svg" xmlns:xlink="http://www.w3.org/1999/xlink" x="0px" y="0px"
	 viewBox="0 0 226.8 226.8" style="enable-background:new 0 0 226.8 226.8;" xml:space="preserve">
<style type="text/css">
	.st0{fill:#FFFFFF;}
</style>
<g id="instagram">
	<path class="st0" d="M136.6,66H90.2c-13.3,0-24,10.7-24,24v46.4c0,13.3,10.7,24,24,24h46.4c13.3,0,24-10.7,24-24V90
		C160.6,76.7,149.9,66,136.6,66z M113.9,141.9c-15.8,0-28.7-12.8-28.7-28.6c0-15.8,12.8-28.7,28.6-28.7c15.8,0,28.7,12.8,28.7,28.6
		l0,0C142.5,129.1,129.7,141.9,113.9,141.9z M144.2,89.5c-3.8,0-6.8-3.1-6.8-6.8s3.1-6.8,6.8-6.8c3.8,0,6.8,3.1,6.8,6.8l0,0
		C151,86.4,147.9,89.5,144.2,89.5C144.2,89.5,144.2,89.5,144.2,89.5z M113.9,94.9c-10.1,0-18.3,8.2-18.3,18.4
		c0,10.1,8.2,18.3,18.4,18.3s18.3-8.2,18.3-18.4C132.2,103.1,124,94.9,113.9,94.9z"/>
	<path class="st0" d="M113.4,14.2c-54.8,0-99.2,44.4-99.2,99.2s44.4,99.2,99.2,99.2s99.2-44.4,99.2-99.2c0,0,0,0,0,0
		C212.6,58.6,168.2,14.2,113.4,14.2z M171.6,136.5c0,19.3-15.7,34.9-34.9,34.9H90.2c-19.3,0-34.9-15.7-34.9-34.9V90
		c0-19.3,15.7-34.9,34.9-34.9h46.4c19.3,0,34.9,15.6,34.9,34.9V136.5z"/>
</g>
</svg>
