<?xml version="1.0" encoding="utf-8"?>
<!-- Generator: Adobe Illustrator 25.2.0, SVG Export Plug-In . SVG Version: 6.00 Build 0)  -->
<svg version="1.1" id="mail" xmlns="http://www.w3.org/2000/svg" xmlns:xlink="http://www.w3.org/1999/xlink" x="0px" y="0px"
	 viewBox="0 0 226.8 226.8" style="enable-background:new 0 0 226.8 226.8;" xml:space="preserve">
<style type="text/css">
	.st0{fill:#FFFFFF;}
</style>
<g>
	<path class="st0" d="M113.4,14.2c-54.8,0-99.2,44.4-99.2,99.2s44.4,99.2,99.2,99.2c54.8,0,99.2-44.4,99.2-99.2
		S168.2,14.2,113.4,14.2z M152.6,128.8c-9.6,21.4-22.8,40.5-36.6,59.3c-1.7,2.3-2.8,3-4.9,0.3c-14.8-19.8-28.5-40.2-38.4-63
		c-5.2-11.9-8.2-24-5.2-37c4.9-21.2,23.4-35.8,45.2-36c23.9-0.1,42.5,15.1,47.2,38.5c0.5,2.7,0.3,5.5,0.5,8.2
		C160.9,109.8,156.9,119.4,152.6,128.8z"/>
	<path class="st0" d="M137.5,99.4c-0.1,12.9-10.9,23.4-24.1,23.4c-13.5,0-24-10.5-23.9-23.8c0-13.1,10.7-23.6,23.9-23.6
		C126.6,75.5,137.6,86.4,137.5,99.4z"/>
</g>
</svg>
