<svg id="fc64df32-9323-41a4-bdfe-1f84a5cb8a69" data-name="Capa 1" xmlns="http://www.w3.org/2000/svg" width="5cm" height="1.404cm" viewBox="0 0 141.732 39.791">
  <g>
    <path d="M37.622,11.7H33.553s-3.959,6.539-5.59,9.247c-.237.4-.459.791-.712,1.219V33.521h5.621V19.729h5.083V33.521h5.621V22.168c-.016-.048,0-.095-.016-.143C41.707,18.779,37.622,11.7,37.622,11.7Z" style="fill: #00b8ab"/>
    <path d="M70.51,11.717H66.44s-3.958,6.54-5.6,9.248c-.237.395-.459.791-.7,1.219V33.537H65.76V19.745h5.082V33.537h5.622V22.184c-.016-.064,0-.1-.016-.143C74.579,18.779,70.51,11.717,70.51,11.717Z" style="fill: #00b8ab"/>
    <polygon points="13.538 25.319 8.06 11.717 2.628 11.717 2.628 33.521 8.06 33.521 8.06 24.622 11.084 33.521 15.977 33.521 18.969 24.622 18.969 33.521 24.432 33.521 24.432 11.717 18.985 11.717 13.538 25.319" style="fill: #00b8ab"/>
    <polygon points="55.958 11.67 52.142 21.091 47.645 11.67 42.103 11.67 49.545 27.377 47.028 33.521 52.459 33.521 61.389 11.686 55.958 11.67" style="fill: #00b8ab"/>
    <path d="M92.662,23.1a7.3,7.3,0,0,0,.744-3.262,6.963,6.963,0,0,0-.7-3.119,7.829,7.829,0,0,0-1.931-2.565A9.591,9.591,0,0,0,87.912,12.4a9.45,9.45,0,0,0-3.5-.681H79.393v21.8h5V28c.269-.016.538-.032.807-.063a5.977,5.977,0,0,0,.76-.095l3.515,5.668H95.37l-4.782-7.79A7.715,7.715,0,0,0,92.662,23.1Zm-4.592-2.09a2.958,2.958,0,0,1-.871.966,4.579,4.579,0,0,1-1.267.665,4.887,4.887,0,0,1-1.52.285V16.753a5.329,5.329,0,0,1,1.52.285,4.464,4.464,0,0,1,1.283.681,3.215,3.215,0,0,1,.855.95,2.323,2.323,0,0,1,0,2.343Z" style="fill: #00b8ab"/>
    <polygon points="94.325 16.705 98.473 16.705 98.473 33.521 103.493 33.521 103.493 16.705 107.673 16.705 107.673 11.702 94.325 11.702 94.325 16.705" style="fill: #00b8ab"/>
    <path d="M121.528,31.969l-.016-.047h0l-.079-.254-.855-3.214h-6.239V24.971h5.305L118.282,19.9h-3.943V16.563H117.4l-1.3-4.846H109.32v21.8h13.728c-.507-.507-1.409-1.393-1.425-1.393A.336.336,0,0,1,121.528,31.969Z" style="fill: #00b8ab"/>
    <path d="M139.088,28.834v-.016h0l-.032-.111-5.7-21.265a1.467,1.467,0,0,0-.143-.332c-.934-1.647-6.127-.586-8.582.617-.285.143-.57.285-.871.443-1.852.951-3.974,2.027-5.336,1.315l-.016-.016h-.2a.016.016,0,0,0-.016.016l-.016.016s-.016,0-.016.015l-.016.016a.016.016,0,0,1-.016.016s0,.016-.015.016c-.016.016-.016.016-.016.032h0v.079l-.016.016v.095l.063.269.095.348.159.649v.016l.126.459,1.346,5.051.887,3.326,1.013,3.752,1.283,4.8.4,1.5.3,1.077v.016h0v.016s0,.016.015.016h0V31.1h0l.016.016h0v.016h0c.016.016.016.032.032.032l.364.364h0l-.728.19h0l-1.172.317h0l1.172,1.171.206.19,1.916-.506.253.253.047.048.016.015.048.048.047.047.174.159a.359.359,0,0,0,.175.079.287.287,0,0,0,.11-.032c.048-.031,3.832-2.027,6.651-1.9,1.409.063,5.019-.507,5.843-1.9A1.138,1.138,0,0,0,139.088,28.834Zm-.586.618c-.633,1.076-3.721,1.646-5.194,1.646h-.19c-2.628-.11-5.953,1.489-6.729,1.869l-1.52-1.5h.269a11.515,11.515,0,0,0,4.56-1.6c.3-.158.586-.3.871-.443a15.668,15.668,0,0,1,5.97-1.409c1.029,0,1.726.206,1.947.6l.095.19.032.111A.875.875,0,0,1,138.5,29.452Z" style="fill: #fa730b"/>
  </g>
</svg>
