<svg id="bca63136-864c-41a6-9699-9ec8ef908459" data-name="mail" xmlns="http://www.w3.org/2000/svg" width="8.001cm" height="8.001cm" viewBox="0 0 226.8 226.8">
  <g>
    <path d="M87.76,110.17c-4.64,6.26-9.31,12.64-13.83,18.83q-2.34,3.18-4.68,6.38V90.25C75.37,96.8,81.63,103.51,87.76,110.17Z" style="fill: #fff"/>
    <path d="M132.51,118.59c6.07,8.56,12.25,17.4,18.85,26.94-12.73-.08-25.57-.08-38.01-.08H75.2l20.03-27.26a24.752,24.752,0,0,0,36.09.32c.22-.22.46-.45.68-.67C132.16,118.08,132.34,118.34,132.51,118.59Z" style="fill: #fff"/>
    <path d="M80.65,86.85c-1.7-1.83-3.4-3.65-5.12-5.5h75.76c-.77.82-1.53,1.64-2.29,2.46-1.58,1.71-3.16,3.42-4.78,5.14-6.56,7.04-13.34,14.33-20.18,21.48-3.17,3.33-6.84,5.1-10.61,5.1-3.82,0-7.54-1.8-10.77-5.2C95.28,102.57,87.85,94.58,80.65,86.85Z" style="fill: #fff"/>
    <path d="M153.59,94.55c1.33-1.43,2.65-2.86,3.96-4.27v45.24c-5.89-8.42-11.94-17.04-17.98-25.55-.06-.09-.11-.16-.15-.22.06-.07.14-.17.25-.29C144.35,104.51,149.05,99.45,153.59,94.55Z" style="fill: #fff"/>
    <path d="M113.4,14.25c-55.1,0-98.7,44-99.2,99.1.4,54.8,43.7,99.1,99.2,99.2a99.15,99.15,0,1,0,0-198.3Zm52.25,130.9c0,5.4-3.2,8.5-8.6,8.5H69.75c-5.5,0-8.6-3.1-8.6-8.6,0-21.1.1-42.1-.1-63.2a8.462,8.462,0,0,1,8.7-8.7c29.2.1,58.3.1,87.5,0a8.408,8.408,0,0,1,8.5,8.4C165.55,102.75,165.65,123.95,165.65,145.15Z" style="fill: #fff"/>
  </g>
</svg>
