<?xml version="1.0" encoding="utf-8"?>
<!-- Generator: Adobe Illustrator 26.1.0, SVG Export Plug-In . SVG Version: 6.00 Build 0)  -->
<svg version="1.1" id="Capa_1" xmlns="http://www.w3.org/2000/svg" xmlns:xlink="http://www.w3.org/1999/xlink" x="0px" y="0px"
	 viewBox="0 0 226.8 226.8" style="enable-background:new 0 0 226.8 226.8;" xml:space="preserve">
<style type="text/css">
	.st0{fill:#00B8AB;stroke:#00B8AB;stroke-width:2.5;stroke-miterlimit:10;}
	.st1{fill:#00B8AB;}
</style>
<path class="st0" d="M113.1,20.5c51.5,0,93.2,41.8,93.2,93.2c0,24.7-9.8,48.4-27.3,65.9c-36.9,35.9-95.9,35-131.8-1.9
	c-35.1-36.2-35.1-93.7,0-129.9C64.7,30.3,88.4,20.5,113.1,20.5 M113.1,14.5c-54.8,0-99.2,44.4-99.2,99.2s44.4,99.2,99.2,99.2
	s99.2-44.4,99.2-99.2C212.3,59,167.9,14.5,113.1,14.5C113.1,14.5,113.1,14.5,113.1,14.5z"/>
<path class="st1" d="M122.7,66.5v80l17.8,1.1v13.2H85.8v-13.2l18.4-1.1V83.2l-18.4,2.3V71.9l27.4-5.4H122.7 M122.7,59.5h-9.6
	c-0.5,0-0.9,0-1.3,0.1L84.4,65c-3.3,0.6-5.7,3.5-5.7,6.9v13.6c0,3.9,3.1,7,7,7c0.3,0,0.6,0,0.9,0l10.5-1.3V140l-11.8,0.7
	c-3.7,0.2-6.6,3.3-6.6,7v13.2c0,3.9,3.1,7,7,7h54.7c3.9,0,7-3.1,7-7v-13.2c0-3.7-2.9-6.8-6.6-7l-11.2-0.7V66.5
	C129.7,62.7,126.5,59.5,122.7,59.5z"/>
</svg>
