<?xml version="1.0" encoding="utf-8"?>
<!-- Generator: Adobe Illustrator 26.1.0, SVG Export Plug-In . SVG Version: 6.00 Build 0)  -->
<svg version="1.1" id="Capa_1" xmlns="http://www.w3.org/2000/svg" xmlns:xlink="http://www.w3.org/1999/xlink" x="0px" y="0px"
	 viewBox="0 0 226.8 226.8" style="enable-background:new 0 0 226.8 226.8;" xml:space="preserve">
<style type="text/css">
	.st0{fill:#00B8AB;}
	.st1{fill:#00B8AB;stroke:#00B8AB;stroke-width:2.5;stroke-miterlimit:10;}
</style>
<path class="st0" d="M136.6,65l3.9,14.8c-20.7,4.2-31.6,13.5-36.8,24.6c4-1.3,8.2-2,12.4-2c18.2,0,29.1,10.9,29.1,28.2
	c0,16.5-11.4,32-31.7,32c-20.7,0-32-15.2-32-37.6C81.5,92.8,106,70.4,136.6,65 M114.7,147.3c7.7,0,13.5-5.9,13.5-15.6
	c0-6.2-1.6-15.1-13.8-15.1c-5-0.1-9.9,0.7-14.6,2.3c-0.1,2.2-0.3,4.3-0.3,6.5C99.5,134.4,102.5,147.3,114.7,147.3 M136.6,58
	c-0.4,0-0.8,0-1.2,0.1c-16.8,2.9-32,10.7-42.8,22c-11.7,12-18.2,28.1-18,44.9c0,12.9,3.4,23.8,9.8,31.7c7,8.5,17,13,29.2,13
	c11.4,0,21.5-4.3,28.6-12.1c6.6-7.4,10.2-17,10.1-26.9c0-20.2-12.6-33.6-32.4-35.1c5.5-4.1,12.8-7,22-8.9c3.8-0.8,6.2-4.5,5.5-8.2
	c0-0.1-0.1-0.3-0.1-0.4l-3.9-14.8C142.6,60.2,139.8,58,136.6,58z M106.5,124.4c2.6-0.5,5.2-0.7,7.9-0.7c4.7,0,6.8,1.2,6.8,8.1
	c0,2-0.5,8.6-6.5,8.6c-7.6,0-8.2-11.4-8.2-14.9C106.5,125.1,106.5,124.8,106.5,124.4L106.5,124.4z"/>
<path class="st1" d="M114.5,20.5c51.5,0,93.2,41.7,93.2,93.2c0,24.7-9.8,48.4-27.3,65.9C144,216,85,216,48.6,179.6
	s-36.4-95.4,0-131.8C66.1,30.3,89.8,20.5,114.5,20.5 M114.5,14.5c-54.8,0-99.2,44.4-99.2,99.2s44.4,99.2,99.2,99.2
	s99.2-44.4,99.2-99.2l0,0C213.7,59,169.3,14.5,114.5,14.5C114.6,14.5,114.5,14.5,114.5,14.5z"/>
</svg>
