<?xml version="1.0" encoding="utf-8"?>
<!-- Generator: Adobe Illustrator 26.1.0, SVG Export Plug-In . SVG Version: 6.00 Build 0)  -->
<svg version="1.1" id="Capa_1" xmlns="http://www.w3.org/2000/svg" xmlns:xlink="http://www.w3.org/1999/xlink" x="0px" y="0px"
	 viewBox="0 0 226.8 226.8" style="enable-background:new 0 0 226.8 226.8;" xml:space="preserve">
<style type="text/css">
	.st0{fill:#00B8AB;stroke:#00B8AB;stroke-width:2.5;stroke-miterlimit:10;}
	.st1{fill:#00B8AB;}
</style>
<path class="st0" d="M113.4,20.5c51.5,0,93.2,41.7,93.2,93.2c0,24.7-9.8,48.4-27.3,65.9c-36.4,36.4-95.4,36.4-131.8,0
	s-36.4-95.4,0-131.8C64.9,30.3,88.7,20.5,113.4,20.5 M113.4,14.5c-54.8,0-99.2,44.4-99.2,99.2s44.4,99.2,99.2,99.2
	s99.2-44.4,99.2-99.2C212.6,59,168.2,14.5,113.4,14.5C113.4,14.5,113.4,14.5,113.4,14.5z"/>
<path class="st1" d="M112.8,66c17.8,0,29.4,10.1,29.4,25.6c0,18.1-13.6,36.3-31.8,54.9h34.4l-0.9,15.1H82v-9.1
	c21.9-19.7,42.3-43.1,42.3-58.5c0-7.8-5.5-11.9-12.7-11.9c-7.7-0.1-15.5,5-21.2,10.4l-7.7-13.8C89.2,71.8,101,66,112.8,66 M112.8,59
	c-12.8,0-26.7,5.8-35.2,14.9c-2.1,2.2-2.5,5.5-1,8.2l7.7,13.8c1,1.9,2.9,3.2,5,3.5c0.4,0.1,0.7,0.1,1.1,0.1c1.8,0,3.5-0.7,4.8-1.9
	c5.6-5.3,11.7-8.5,16.3-8.5c5.7,0,5.7,3.4,5.7,4.9c0,10.7-15.3,31.1-39.9,53.3c-1.5,1.3-2.3,3.2-2.3,5.2v9.1c0,3.9,3.1,7,7,7h62
	c3.7,0,6.8-2.9,7-6.6l0.9-15.1c0.2-3.9-2.7-7.2-6.6-7.4c-0.1,0-0.3,0-0.4,0h-18.4c12.1-14,22.8-30.6,22.8-47.9
	c0-9.5-3.7-18-10.4-23.9C132.2,62,123.3,59,112.8,59z"/>
</svg>
