<?xml version="1.0" encoding="utf-8"?>
<!-- Generator: Adobe Illustrator 26.1.0, SVG Export Plug-In . SVG Version: 6.00 Build 0)  -->
<svg version="1.1" id="Capa_1" xmlns="http://www.w3.org/2000/svg" xmlns:xlink="http://www.w3.org/1999/xlink" x="0px" y="0px"
	 viewBox="0 0 226.8 226.8" style="enable-background:new 0 0 226.8 226.8;" xml:space="preserve">
<style type="text/css">
	.st0{fill:#00B8AB;stroke:#00B8AB;stroke-width:2.5;stroke-miterlimit:10;}
	.st1{fill:#00B8AB;}
</style>
<path class="st0" d="M113.7,20.5c51.5,0,93.2,41.7,93.2,93.2c0,24.7-9.8,48.4-27.3,65.9c-36.4,36.4-95.4,36.4-131.8,0
	s-36.4-95.4,0-131.8C65.2,30.3,88.9,20.5,113.7,20.5 M113.7,14.5c-54.8,0-99.2,44.4-99.2,99.2s44.4,99.2,99.2,99.2
	s99.2-44.4,99.2-99.2l0,0C212.9,59,168.5,14.5,113.7,14.5C113.7,14.5,113.7,14.5,113.7,14.5z"/>
<path class="st1" d="M114.6,66.6c14.3,0,25.6,7.7,25.6,23.3c0,12.4-7.8,19.7-18.1,23.2c12.4,1.6,21.7,10.3,21.7,23.2
	c-0.1,16.1-11.4,27.9-32.9,27.9c-10.3,0.2-20.3-3.9-27.5-11.3l10.6-13.5c4.3,5.1,10.7,9.3,18.4,9.3c10.6,0,13.9-6.7,13.9-12
	c0-9.1-7.8-14.3-22.4-14.3H98v-13.5c16.1-1.2,24.3-6.7,24.3-16.1c0-6.1-3.6-10.6-11-10.6c-6.1,0-14.6,4.2-19.7,10l-7-12.7
	C92,71.1,102.7,66.6,114.6,66.6 M114.6,59.6c-14.1,0-26.6,5.4-35.2,15.3c-2,2.2-2.3,5.4-0.9,8l7,12.7c1.1,2,3.1,3.4,5.4,3.6
	c0.3,0,0.5,0,0.8,0c2,0,3.9-0.9,5.3-2.4c4-4.5,10.7-7.6,14.4-7.6c3.4,0,4,1.2,4,3.6c0.1,2.2-1.1,4.2-3,5.3
	c-2.1,1.4-6.4,3.2-14.8,3.8c-3.7,0.3-6.5,3.3-6.5,7v13.5c0,3.9,3.1,7,7,7h5.9c7,0,15.4,1.3,15.4,7.3c0,3.4-2.3,5-6.9,5
	c-6.3,0-10.9-4.3-13.1-6.8c-1.3-1.6-3.3-2.5-5.3-2.4H94c-2.1,0-4.1,1-5.4,2.7L78,148.5c-2.2,2.8-1.9,6.7,0.5,9.2
	c8.6,8.7,20.3,13.5,32.5,13.4c24,0,39.7-13.7,39.9-34.9v-0.1c0.2-9.8-4.6-19-12.6-24.5c5.9-5.6,9-13,9-21.8c0-9.5-3.4-17.4-9.9-22.9
	C131.5,62.2,123.7,59.6,114.6,59.6L114.6,59.6z"/>
</svg>
