<?xml version="1.0" encoding="utf-8"?>
<!-- Generator: Adobe Illustrator 26.1.0, SVG Export Plug-In . SVG Version: 6.00 Build 0)  -->
<svg version="1.1" id="Capa_1" xmlns="http://www.w3.org/2000/svg" xmlns:xlink="http://www.w3.org/1999/xlink" x="0px" y="0px"
	 viewBox="0 0 226.8 226.8" style="enable-background:new 0 0 226.8 226.8;" xml:space="preserve">
<style type="text/css">
	.st0{fill:#00B8AB;stroke:#00B8AB;stroke-width:2.5;stroke-miterlimit:10;}
	.st1{fill:#00B8AB;}
</style>
<path class="st0" d="M114.2,20.5c51.5,0,93.2,41.7,93.2,93.2c0,24.7-9.8,48.4-27.3,65.9c-36.4,36.4-95.4,36.4-131.8,0
	s-36.4-95.4,0-131.8C65.8,30.3,89.5,20.5,114.2,20.5 M114.2,14.5c-54.8,0-99.2,44.4-99.2,99.2s44.4,99.2,99.2,99.2
	s99.2-44.4,99.2-99.2l0,0C213.5,59,169.1,14.5,114.2,14.5C114.3,14.5,114.3,14.5,114.2,14.5z"/>
<path class="st1" d="M138.8,66L138.8,66 M138.8,66l-1,14.9h-30.1l-1.6,21.7h1.6c20.7,0,36.9,8.8,36.9,29.1
	c0,17.7-12.7,29.8-32.1,29.8c-10.6,0-20.8-4.1-28.5-11.4l10.4-13.3c5.1,5.8,11.3,9.3,18.8,9.3c10.3,0,13.9-6.2,13.9-13
	c0-9.6-5.5-15.8-25-15.8H88.6L92.9,66H138.8 M138.8,59H92.9c-3.6,0-6.7,2.8-7,6.4l-4.3,51.2c-0.3,3.9,2.5,7.2,6.4,7.6
	c0.2,0,0.4,0,0.6,0H102c9.6,0,13.9,1.6,15.8,3c1.1,0.8,2.3,2,2.3,5.8c0,3.6-1.2,6-6.9,6c-5.1,0-9.5-2.2-13.6-6.9
	c-1.3-1.5-3.2-2.4-5.3-2.4h-0.2c-2.1,0.1-4,1-5.3,2.7l-10.4,13.3c-2.2,2.8-1.9,6.9,0.7,9.4c9,8.6,20.9,13.4,33.4,13.4
	c23,0,39.1-15.1,39.1-36.8c0-20.6-14.4-34-38-35.9l0.6-7.9h23.6c3.7,0,6.7-2.8,7-6.5l1-14.7c0-0.2,0-0.4,0-0.7
	C145.8,62.1,142.6,59,138.8,59L138.8,59L138.8,59z M138.8,73L138.8,73z"/>
</svg>
