<?xml version="1.0" encoding="utf-8"?>
<!-- Generator: Adobe Illustrator 26.1.0, SVG Export Plug-In . SVG Version: 6.00 Build 0)  -->
<svg version="1.1" id="Capa_1" xmlns="http://www.w3.org/2000/svg" xmlns:xlink="http://www.w3.org/1999/xlink" x="0px" y="0px"
	 viewBox="0 0 141.7 141.7" style="enable-background:new 0 0 141.7 141.7;" xml:space="preserve">
<style type="text/css">
	.st0{fill:none;stroke:#00B9AC;stroke-width:2.5;stroke-linecap:round;stroke-linejoin:round;stroke-miterlimit:10;}
</style>
<path class="st0" d="M111.3,64.7c0.3,2,0.5,4.1,0.5,6.2c0,22.6-18.3,40.9-40.9,40.9C48.3,111.8,30,93.5,30,70.9
	C30,48.3,48.3,30,70.9,30c2.7,0,5.4,0.3,8,0.8"/>
<path class="st0" d="M97.5,66.8c0.2,1.3,0.3,2.7,0.3,4.1c0,14.9-12,26.9-26.9,26.9c-14.9,0-26.9-12.1-26.9-26.9S56,44,70.9,44
	c1.8,0,3.5,0.2,5.2,0.5"/>
<path class="st0" d="M85.1,68.7c0.1,0.7,0.2,1.5,0.2,2.2c0,8-6.5,14.4-14.4,14.4c-8,0-14.4-6.5-14.4-14.4c0-8,6.5-14.4,14.4-14.4
	c1,0,1.9,0.1,2.8,0.3"/>
<polyline class="st0" points="88.4,53.6 88.4,39.9 98,30.3 97.8,43.3 111.1,43.3 100.7,53.6 88.1,53.6 70.9,70.9 "/>
</svg>
