<svg xmlns="http://www.w3.org/2000/svg" width="600" height="210" viewBox="0 0 600 210">
  <defs>
    <style>
      .cls-1 {
        fill: #482683;
      }

      .cls-2 {
        fill: #ee7203;
      }

      .cls-3 {
        fill: #fff;
      }
    </style>
  </defs>
  <g id="Capa_3" data-name="Capa 3">
    <g>
      <polygon class="cls-1" points="529.75 7.21 5 7.21 70.42 202.79 595 202.79 529.75 7.21"/>
      <g>
        <path class="cls-2" d="M467.39,122c0-5.22-3.7-9-8.8-9a9,9,0,1,0,8.8,9Zm-11.11.46v5.91h-1.92v-13h4.75c2.78,0,4.06,1.22,4.06,3.59a2.7,2.7,0,0,1-2.26,2.78v.06c1.1.18,1.5,1.16,1.74,3,.17,1.16.4,3.19.81,3.65H461.2c-.52-1.22-.47-3-.87-4.4a1.92,1.92,0,0,0-2.2-1.51Zm2.37-1.68c1.85,0,2.37-1,2.37-1.86,0-1-.52-1.85-2.37-1.85h-2.37v3.71Zm-11,1.22a10.9,10.9,0,1,1,10.9,10.77A10.68,10.68,0,0,1,447.69,122Z"/>
        <polygon class="cls-2" points="409.95 130.91 397.39 116.82 384.94 130.91 358.76 130.91 384.36 102.15 358.76 73.38 385.77 73.38 398.44 87.36 410.65 73.38 436.72 73.38 411.24 102.03 437.07 130.91 409.95 130.91"/>
        <polygon class="cls-2" points="308.46 130.91 308.46 40.29 358.76 40.29 358.76 60.49 329.77 60.49 329.77 73.38 358.76 73.38 358.76 92.82 329.77 92.82 329.77 110.66 358.76 110.66 358.76 130.91 308.46 130.91"/>
        <path class="cls-3" d="M287.25,40.29V77.38H287c-4.7-5.4-10.56-7.28-17.37-7.28-13.95,0-24.46,9.48-28.15,22-4.21-13.81-15.05-22.28-31.14-22.28-13.06,0-23.38,5.86-28.76,15.42V73.38h-27V60.49h29.46V40.29H130.52v90.62h24.07V92.82h24a35.86,35.86,0,0,0-1.1,9c0,18.91,14.44,32.17,32.87,32.17,15.5,0,25.71-7.28,31.11-20.54H220.84c-2.79,4-4.91,5.17-10.49,5.17a12.38,12.38,0,0,1-12-12.33h42c1.82,15,13.51,28,29.56,28A20.55,20.55,0,0,0,287,125h.24v5.87h21.21V40.29ZM199,93.09c1.33-5.76,5.8-9.52,11.37-9.52,6.14,0,10.37,3.65,11.49,9.52Zm75.39,24c-7.82,0-12.68-7.29-12.68-14.9,0-8.13,4.23-15.95,12.68-15.95,8.77,0,12.26,7.82,12.26,15.95C286.63,109.93,282.93,117.11,274.37,117.11Z"/>
        <g>
          <path class="cls-3" d="M308.47,176.22V143.74h17.94v2.43h-15v12h14.35v2.42H311.43v13.23h15.65v2.43Z"/>
          <path class="cls-3" d="M329.22,176.22,338,164.55l-8.3-11H333l6.78,9,6.63-9h3.37l-8.44,11,8.79,11.67h-3.4l-7.27-9.65-6.91,9.65Z"/>
          <path class="cls-3" d="M355.86,184.73h-2.74V160.3c0-2.25,0-4.53-.13-6.78h2.69l.09,3.41a7.86,7.86,0,0,1,7.31-3.94c7,0,10,5.78,10,11.88s-3,11.88-10,11.88a7.94,7.94,0,0,1-7.22-3.81Zm14.31-19.86c0-4.84-2-9.6-7.4-9.6-5.07,0-6.91,4.17-6.91,9.6s1.84,9.59,6.91,9.59C368.15,174.46,370.17,169.71,370.17,164.87Z"/>
          <path class="cls-3" d="M387.15,155.63c-4.53,0-6.11,3.81-6.11,7.76v12.83h-2.73v-16c0-2.19,0-4.43-.14-6.68h2.7l.17,3.28a6.87,6.87,0,0,1,6.6-3.81c.4,0,.85,0,1.25.08v2.74A11.41,11.41,0,0,0,387.15,155.63Z"/>
          <path class="cls-3" d="M392.25,165.36c0,5.11,2.41,9.33,7.39,9.33,3.86,0,5.65-2.56,6.33-5.11h2.6c-1.22,4.75-4.13,7.17-9.29,7.17-6.9,0-9.95-5.11-9.95-11.48S392.51,153,399.64,153s9.15,6.32,9.15,12.37Zm.08-2.06h13.54c0-4.44-2.1-8.25-6.41-8.25C395.56,155.05,392.87,158,392.33,163.3Z"/>
          <path class="cls-3" d="M419.47,176.75c-4.66,0-8.16-2.2-8.16-7.17h2.74c0,3.4,2.24,5.11,5.56,5.11,3.09,0,5.51-1.48,5.51-4.53,0-2.73-2.82-3.46-5.78-4.3-3.59-1-7.49-2.16-7.49-6.55,0-4.89,4.08-6.32,7.9-6.32,4.39,0,7.66,1.7,7.8,6.4h-2.74c-.13-2.68-2.06-4.21-5-4.21-2.28,0-5.07.9-5.07,3.86,0,2.69,2.79,3.45,5.74,4.26,3.59,1,7.54,2.06,7.54,6.46C428,174.87,424.09,176.75,419.47,176.75Z"/>
          <path class="cls-3" d="M438.44,176.75c-4.66,0-8.16-2.2-8.16-7.17H433c0,3.4,2.24,5.11,5.56,5.11,3.09,0,5.51-1.48,5.51-4.53,0-2.73-2.82-3.46-5.78-4.3-3.59-1-7.49-2.16-7.49-6.55,0-4.89,4.08-6.32,7.89-6.32,4.39,0,7.67,1.7,7.8,6.4h-2.73c-.14-2.68-2.06-4.21-5-4.21-2.29,0-5.07.9-5.07,3.86,0,2.69,2.78,3.45,5.74,4.26,3.59,1,7.54,2.06,7.54,6.46C447,174.87,443.06,176.75,438.44,176.75Z"/>
        </g>
      </g>
    </g>
  </g>
</svg>
