<svg xmlns="http://www.w3.org/2000/svg" width="600" height="210" viewBox="0 0 600 210">
  <defs>
    <style>
      .cls-1 {
        fill: #fff;
      }

      .cls-2 {
        fill: #009de2;
      }
    </style>
  </defs>
  <g id="Capa_4" data-name="Capa 4">
    <g>
      <polygon class="cls-1" points="529.75 7.21 5 7.21 70.42 202.79 595 202.79 529.75 7.21"/>
      <g>
        <path class="cls-2" d="M103.2,89.85V37.33h18.6q28,0,28,25.6,0,12.27-7.63,19.59T121.8,89.85ZM115,47V80.25h5.86q7.68,0,12.07-4.61t4.37-12.56q0-7.51-4.34-11.82T120.81,47Z"/>
        <path class="cls-2" d="M191.06,74.39H166.6q.59,8.17,10.29,8.17a20.16,20.16,0,0,0,10.88-2.93V88q-5.21,2.79-13.52,2.78-9.09,0-14.1-5t-5-14q0-9.33,5.42-14.79a18.07,18.07,0,0,1,13.33-5.46q8.2,0,12.69,4.87t4.49,13.22Zm-10.73-7.1q0-8.06-6.52-8.06A6.23,6.23,0,0,0,169,61.54a10.55,10.55,0,0,0-2.47,5.75Z"/>
        <path class="cls-2" d="M209.67,85.49h-.15V107.1H198V52.34h11.57V58h.15a13.59,13.59,0,0,1,12.05-6.55q7.29,0,11.26,5T237,70q0,9.39-4.63,15.06A15.12,15.12,0,0,1,220,90.76,11.67,11.67,0,0,1,209.67,85.49Zm-.33-15.38v3a9.55,9.55,0,0,0,2,6.34,6.69,6.69,0,0,0,5.38,2.45,7.11,7.11,0,0,0,6.14-3.06c1.45-2,2.18-4.92,2.18-8.66q0-9.89-7.69-9.89A7.24,7.24,0,0,0,211.59,63,10.76,10.76,0,0,0,209.34,70.11Z"/>
        <path class="cls-2" d="M262.33,90.76q-9.37,0-14.74-5.25t-5.36-14.27q0-9.3,5.56-14.56t15.06-5.25q9.33,0,14.65,5.25t5.31,13.9q0,9.35-5.48,14.76T262.33,90.76Zm.3-30.47a7.74,7.74,0,0,0-6.38,2.82q-2.26,2.82-2.27,8,0,10.8,8.72,10.8,8.31,0,8.31-11.1Q271,60.3,262.63,60.29Z"/>
        <path class="cls-2" d="M287.86,88.86V79.48a24.68,24.68,0,0,0,5.7,2.57,18.91,18.91,0,0,0,5.36.84,11.59,11.59,0,0,0,4.86-.84,2.73,2.73,0,0,0,1.77-2.57,2.39,2.39,0,0,0-.8-1.83,7.62,7.62,0,0,0-2.07-1.28,22.93,22.93,0,0,0-2.77-1c-1-.29-2-.62-2.89-1a27.48,27.48,0,0,1-3.94-1.81,11.68,11.68,0,0,1-2.86-2.25,9,9,0,0,1-1.75-3,11.62,11.62,0,0,1-.61-4A10.23,10.23,0,0,1,289.24,58a11.12,11.12,0,0,1,3.66-3.72,16.71,16.71,0,0,1,5.24-2.12,26.79,26.79,0,0,1,6.13-.68,34.75,34.75,0,0,1,5.05.38,38.08,38.08,0,0,1,5.06,1.12v8.94a18.32,18.32,0,0,0-4.71-1.93,20.14,20.14,0,0,0-4.92-.64,11.38,11.38,0,0,0-2.15.2,7.07,7.07,0,0,0-1.77.59,3.25,3.25,0,0,0-1.21,1,2.29,2.29,0,0,0-.44,1.37,2.53,2.53,0,0,0,.66,1.76,5.6,5.6,0,0,0,1.72,1.26,16.57,16.57,0,0,0,2.36,1c.87.28,1.73.56,2.58.86a32,32,0,0,1,4.18,1.76,12.91,12.91,0,0,1,3.2,2.23,8.75,8.75,0,0,1,2.06,3,10.82,10.82,0,0,1,.71,4.1,10.64,10.64,0,0,1-1.45,5.7,11.49,11.49,0,0,1-3.84,3.85,17.69,17.69,0,0,1-5.53,2.16,30.82,30.82,0,0,1-6.5.67A33.54,33.54,0,0,1,287.86,88.86Z"/>
        <path class="cls-2" d="M329.18,46.41a6.74,6.74,0,0,1-4.8-1.74,5.59,5.59,0,0,1-1.87-4.27,5.37,5.37,0,0,1,1.87-4.24,7.82,7.82,0,0,1,9.61,0,5.42,5.42,0,0,1,1.85,4.24A5.62,5.62,0,0,1,334,44.73,6.88,6.88,0,0,1,329.18,46.41Zm5.71,43.44H323.32V52.34h11.57Z"/>
        <path class="cls-2" d="M367.3,89.41c-1.71.9-4.28,1.35-7.73,1.35q-12.22,0-12.23-12.7V60.88h-6.08V52.34h6.08V44.25L358.88,41V52.34h8.42v8.54h-8.42V76q0,5.86,4.65,5.86a7.8,7.8,0,0,0,3.77-1.06Z"/>
        <path class="cls-2" d="M391.69,90.76q-9.37,0-14.74-5.25t-5.36-14.27q0-9.3,5.56-14.56t15.06-5.25q9.33,0,14.65,5.25t5.31,13.9q0,9.35-5.48,14.76T391.69,90.76Zm.3-30.47a7.7,7.7,0,0,0-6.37,2.82q-2.28,2.82-2.28,8,0,10.8,8.72,10.8,8.31,0,8.31-11.1Q400.37,60.3,392,60.29Z"/>
        <path class="cls-2" d="M417.22,88.86V79.48a24.68,24.68,0,0,0,5.7,2.57,18.91,18.91,0,0,0,5.36.84,11.59,11.59,0,0,0,4.86-.84,2.73,2.73,0,0,0,1.77-2.57,2.39,2.39,0,0,0-.8-1.83A7.62,7.62,0,0,0,432,76.37a22.33,22.33,0,0,0-2.77-1c-1-.29-2-.62-2.89-1a27.48,27.48,0,0,1-3.94-1.81,11.68,11.68,0,0,1-2.86-2.25,9,9,0,0,1-1.75-3,11.62,11.62,0,0,1-.61-4A10.23,10.23,0,0,1,418.6,58a11.12,11.12,0,0,1,3.66-3.72,16.71,16.71,0,0,1,5.24-2.12,26.79,26.79,0,0,1,6.13-.68,35,35,0,0,1,5.06.38,38.29,38.29,0,0,1,5.05,1.12v8.94A18.18,18.18,0,0,0,439,59.94a20.14,20.14,0,0,0-4.92-.64,11.38,11.38,0,0,0-2.15.2,7.07,7.07,0,0,0-1.77.59,3.33,3.33,0,0,0-1.21,1,2.29,2.29,0,0,0-.44,1.37,2.53,2.53,0,0,0,.66,1.76,5.6,5.6,0,0,0,1.72,1.26,16.57,16.57,0,0,0,2.36,1c.87.28,1.73.56,2.59.86A31.89,31.89,0,0,1,440,69.05a13.17,13.17,0,0,1,3.21,2.23,8.86,8.86,0,0,1,2.05,3,10.82,10.82,0,0,1,.71,4.1,10.64,10.64,0,0,1-1.45,5.7,11.49,11.49,0,0,1-3.84,3.85,17.59,17.59,0,0,1-5.53,2.16,30.82,30.82,0,0,1-6.5.67A33.54,33.54,0,0,1,417.22,88.86Z"/>
        <path class="cls-2" d="M170.48,173.19V120.67H189.6q8.79,0,13.51,3.22a10.38,10.38,0,0,1,4.73,9.09,10.72,10.72,0,0,1-2.88,7.43,15.06,15.06,0,0,1-7.34,4.43V145a14.5,14.5,0,0,1,8.95,4.14,11.54,11.54,0,0,1,3.35,8.39A14,14,0,0,1,204.76,169q-5.16,4.23-14.1,4.23Zm11.83-43.8v12.45h5.2a8.66,8.66,0,0,0,5.77-1.78,6.05,6.05,0,0,0,2.1-4.89q0-5.78-8.64-5.78Zm0,21.24v13.84h6.41a9.9,9.9,0,0,0,6.43-1.9,6.35,6.35,0,0,0,2.32-5.2,5.91,5.91,0,0,0-2.29-4.94,10.08,10.08,0,0,0-6.39-1.8Z"/>
        <path class="cls-2" d="M248.64,173.19H237.69v-5.38h-.15a12.23,12.23,0,0,1-11.17,6.3q-5.46,0-8.59-3.1a11.07,11.07,0,0,1-3.13-8.26q0-10.91,12.93-12.6l10.18-1.35q0-6.15-6.67-6.15a22.77,22.77,0,0,0-12.74,4v-8.72a28.81,28.81,0,0,1,6.61-2.2,35,35,0,0,1,7.64-.95q16,0,16,16ZM237.76,158v-2.53l-6.81.88c-3.76.49-5.64,2.18-5.64,5.09a4.18,4.18,0,0,0,1.37,3.24,5.29,5.29,0,0,0,3.72,1.26,6.86,6.86,0,0,0,5.31-2.25A8.12,8.12,0,0,0,237.76,158Z"/>
        <path class="cls-2" d="M294,173.19H282.48V152.35q0-8.72-6.23-8.71a6.15,6.15,0,0,0-4.94,2.3,8.76,8.76,0,0,0-1.94,5.86v21.39H257.79v-37.5h11.58v5.93h.14a13.26,13.26,0,0,1,12.05-6.85q12.45,0,12.46,15.46Z"/>
        <path class="cls-2" d="M331.59,171.84q-3.91,2.26-11.31,2.27-8.65,0-14-5.24a18.07,18.07,0,0,1-5.35-13.51q0-9.57,5.73-15.08T322,134.77q6.63,0,9.59,1.76v9.82a13.14,13.14,0,0,0-8.09-2.71,10.66,10.66,0,0,0-7.89,2.91q-2.92,2.91-2.92,8a10.69,10.69,0,0,0,2.79,7.82,10.23,10.23,0,0,0,7.65,2.83,15.25,15.25,0,0,0,8.46-2.71Z"/>
        <path class="cls-2" d="M370.38,173.19H359.43v-5.38h-.15a12.22,12.22,0,0,1-11.17,6.3q-5.46,0-8.59-3.1a11.1,11.1,0,0,1-3.13-8.26q0-10.91,12.93-12.6l10.18-1.35q0-6.15-6.66-6.15a22.77,22.77,0,0,0-12.75,4v-8.72a29,29,0,0,1,6.61-2.2,35.06,35.06,0,0,1,7.64-.95q16,0,16,16ZM359.5,158v-2.53l-6.81.88c-3.76.49-5.64,2.18-5.64,5.09a4.21,4.21,0,0,0,1.37,3.24,5.31,5.31,0,0,0,3.72,1.26,6.86,6.86,0,0,0,5.31-2.25A8.12,8.12,0,0,0,359.5,158Z"/>
        <path class="cls-2" d="M404,146.13a10,10,0,0,0-4.87-1.14,7,7,0,0,0-5.9,2.77,12.08,12.08,0,0,0-2.12,7.52v17.91H379.54v-37.5h11.57v7h.15Q394,135,401.14,135a7.29,7.29,0,0,1,2.86.44Z"/>
        <path class="cls-2" d="M415.25,129.75a6.74,6.74,0,0,1-4.8-1.74,5.58,5.58,0,0,1-1.87-4.26,5.39,5.39,0,0,1,1.87-4.25,7.82,7.82,0,0,1,9.61,0,5.44,5.44,0,0,1,1.85,4.25,5.58,5.58,0,0,1-1.85,4.32A6.88,6.88,0,0,1,415.25,129.75ZM421,173.19H409.39v-37.5H421Z"/>
        <path class="cls-2" d="M448.57,174.11q-9.37,0-14.74-5.26t-5.36-14.26q0-9.32,5.56-14.56t15.06-5.26q9.33,0,14.65,5.26t5.31,13.9q0,9.33-5.48,14.76T448.57,174.11Zm.3-30.47a7.74,7.74,0,0,0-6.38,2.82q-2.26,2.82-2.27,8,0,10.8,8.72,10.8,8.31,0,8.31-11.09Q457.25,143.64,448.87,143.64Z"/>
        <path class="cls-2" d="M474.1,172.2v-9.37a25.06,25.06,0,0,0,5.7,2.56,18.91,18.91,0,0,0,5.36.84,11.59,11.59,0,0,0,4.86-.84,2.72,2.72,0,0,0,1.77-2.56A2.36,2.36,0,0,0,491,161a7.63,7.63,0,0,0-2.07-1.29,27,27,0,0,0-2.77-1c-1-.29-2-.62-2.89-1a28.59,28.59,0,0,1-3.94-1.82,11.22,11.22,0,0,1-2.86-2.25,8.84,8.84,0,0,1-1.75-3,11.62,11.62,0,0,1-.61-4,10.25,10.25,0,0,1,1.38-5.42,11.21,11.21,0,0,1,3.66-3.72,16.71,16.71,0,0,1,5.24-2.12,27.36,27.36,0,0,1,6.13-.68,33.43,33.43,0,0,1,5.05.39,38,38,0,0,1,5.06,1.11v8.94a18.29,18.29,0,0,0-4.71-1.92,19.67,19.67,0,0,0-4.92-.64,10.61,10.61,0,0,0-2.15.2,7.07,7.07,0,0,0-1.77.58,3.25,3.25,0,0,0-1.21,1,2.32,2.32,0,0,0-.44,1.38,2.51,2.51,0,0,0,.66,1.75,5.79,5.79,0,0,0,1.72,1.27,17.84,17.84,0,0,0,2.36,1l2.58.86a33.49,33.49,0,0,1,4.18,1.76,13.18,13.18,0,0,1,3.2,2.23,8.78,8.78,0,0,1,2.06,3,10.75,10.75,0,0,1,.71,4.1,10.62,10.62,0,0,1-1.45,5.69,11.49,11.49,0,0,1-3.84,3.85,17.45,17.45,0,0,1-5.53,2.16,30.82,30.82,0,0,1-6.5.68A33.54,33.54,0,0,1,474.1,172.2Z"/>
      </g>
    </g>
  </g>
</svg>
