<svg xmlns="http://www.w3.org/2000/svg" width="600" height="210" viewBox="0 0 600 210">
  <defs>
    <style>
      .cls-1 {
        fill: #e20613;
      }

      .cls-2, .cls-3 {
        fill: #fff;
      }

      .cls-2 {
        fill-rule: evenodd;
      }

      .cls-4 {
        fill: red;
      }
    </style>
  </defs>
  <g id="Capa_2" data-name="Capa 2">
    <g>
      <polygon class="cls-1" points="529.75 7.21 5 7.21 70.42 202.79 595 202.79 529.75 7.21"/>
      <g>
        <path class="cls-2" d="M87.77,95.19c1.21-5,2.62-10.87,11-10.87h33.8c12.39,0,10.75,6.82,9.77,10.87l-4.46,18.45H102.08l-1.35,5.59c-.89,3.68,1.59,5.94,6.19,5.94h28.2l-3.14,13H90.08c-12.69,0-11.59-4.58-10-11l7.73-32Zm16.77,8.27H121.3L122.44,99c.35-1.38.86-3.55-2.37-3.55H109.89a4,4,0,0,0-4.17,3.38l-1.18,4.65ZM194,84.32H161.28c-10.06,0-11.51,5.78-12.74,11.11s.65,10.23,7.16,14.88,13.77,7.66,12.54,11.84c-.51,1.75-2.69,3-7.08,3H141.35l-3.13,13H170.8c6.36,0,14.24.12,18-5.89s2.7-10.82-.7-15.79-10-8.18-15-13c-2.92-2.84-2.75-8,2-8h16.24L194,84.32Zm6.12,0h10.52L214,70.43h19.16l-3.36,13.89h9.81q-1.35,5.57-2.69,11.11h-9.8l-6.08,25.17c-1.11,4.57.31,6.46,6.18,6.46l-2.68,11.08H210.49c-12.82,0-10.7-8.77-9.69-13L208,95.43H197.47l2.68-11.11Zm42.94,11.11,2.68-11.11h40.87c10,0,8.73,7.42,7.84,11.11l-7.64,31.63c-2,8.3.56,8.93,2.18,11.08H270.78a9.6,9.6,0,0,1-5.66-2.5c-4.3,1.31-4.59,4.08-13.55,3.93s-19-8.17-18.13-18.89,10.2-17.22,18.67-17.22H272.9l1.18-4.89c.76-3.14-1.7-3.14-3.19-3.14Zm28.14,17H258.66c-5.13,0-12.22,6.18-6.28,12.31s16.7-3.11,18.85-12.31Zm71.21-42h-18c-4.62,0-10.52,0-12.89,9.82l-1,4.07h-8l-2.68,11.11h8L298.58,134a6.14,6.14,0,0,1-3.06,4.12h14.61c4.93,0,7.58-4.57,9.15-11.08l7.65-31.63h9.47l2.68-11.11h-9.47l.57-2.35c.41-1.7,1.87-3,4.44-2.91l5.72.07,2.1-8.7Zm.63,24.76c1.21-5,2.62-10.87,11-10.87h33.8c12.4,0,10.75,6.82,9.77,10.87l-4.45,18.45H357.39L356,119.23c-.89,3.68,1.59,5.94,6.19,5.94h28.2l-3.13,13H345.38c-12.69,0-11.58-4.58-10-11l7.73-32Zm16.77,8.27H376.6L377.74,99c.35-1.38.86-3.55-2.37-3.55H365.19A4,4,0,0,0,361,98.81l-1.19,4.65Zm46.09-19.14h10.52l3.36-13.89H439l-3.36,13.89h9.81q-1.35,5.57-2.69,11.11h-9.8l-6.08,25.17c-1.11,4.57.32,6.46,6.18,6.46l-2.68,11.08H416.28c-12.83,0-10.71-8.77-9.69-13l7.18-29.74H403.25l2.68-11.11Zm42.93,11.11,2.69-11.11h40.87c10,0,8.73,7.42,7.84,11.11l-7.65,31.63c-2,8.3.56,8.93,2.18,11.08H476.55a9.54,9.54,0,0,1-5.65-2.5c-4.31,1.31-4.6,4.08-13.56,3.93s-19-8.17-18.13-18.89,10.21-17.22,18.67-17.22h20.79l1.18-4.89c.76-3.14-1.7-3.14-3.19-3.14Zm28.14,17H464.44c-5.14,0-12.23,6.18-6.29,12.31s16.71-3.11,18.85-12.31Z"/>
        <path class="cls-3" d="M513,82.6A7.86,7.86,0,0,1,518.56,96h0a7.85,7.85,0,0,1-11.12,0h0a7.85,7.85,0,0,1,0-11.12h0A7.83,7.83,0,0,1,513,82.6Z"/>
        <path class="cls-4" d="M514.86,90h1.61a2.44,2.44,0,0,0,.8-.11.85.85,0,0,0,.43-.33,1,1,0,0,0,.15-.51.82.82,0,0,0-.29-.66,1.34,1.34,0,0,0-.91-.26h-1.79V90Zm-.74,3.15V87.5h2.5a3.33,3.33,0,0,1,1.14.15,1.26,1.26,0,0,1,.63.54,1.57,1.57,0,0,1,.23.85,1.4,1.4,0,0,1-.39,1,1.92,1.92,0,0,1-1.2.52,2.09,2.09,0,0,1,.45.28,3.64,3.64,0,0,1,.62.75l1,1.54h-.93L517.4,92q-.33-.51-.54-.78a1.5,1.5,0,0,0-.38-.38,1.14,1.14,0,0,0-.34-.15,2.13,2.13,0,0,0-.41,0h-.87v2.5Zm-6.6,0V87.5h1.13l1.33,4,.27.84c.06-.21.16-.51.3-.91l1.35-3.92h1v5.64h-.72V88.42l-1.63,4.72h-.68l-1.63-4.8v4.8Z"/>
      </g>
    </g>
  </g>
</svg>
