<svg id="Capa_1" data-name="Capa 1" xmlns="http://www.w3.org/2000/svg" width="600" height="210" viewBox="0 0 600 210">
  <defs>
    <style>
      .cls-1 {
        fill: #fff;
      }

      .cls-2 {
        fill: #009de2;
      }

      .cls-2, .cls-3, .cls-4 {
        fill-rule: evenodd;
      }

      .cls-3 {
        fill: #113984;
      }

      .cls-4 {
        fill: #172c70;
      }
    </style>
  </defs>
  <g>
    <polygon class="cls-1" points="529.75 7.21 5 7.21 70.42 202.79 595 202.79 529.75 7.21"/>
    <g>
      <path class="cls-2" d="M136.38,74.23h27.85c15,0,20.58,7.57,19.71,18.7-1.44,18.37-12.54,28.52-27.26,28.52h-7.44c-2,0-3.37,1.33-3.92,5l-3.19,21.05c-.21,1.36-.93,2.17-2,2.26H122.66c-1.64,0-2.23-1.25-1.8-4l10.67-67.52C132,75.52,133.43,74.23,136.38,74.23Z"/>
      <path class="cls-3" d="M257.27,73c9.4,0,18.07,5.1,16.88,17.8-1.41,15.06-9.52,23.45-22.29,23.49H240.72c-1.6,0-2.38,1.3-2.8,4L235.77,132c-.32,2.07-1.38,3.09-3,3.09H222.44c-1.65,0-2.23-1.06-1.86-3.42l8.58-54.95c.42-2.7,1.45-3.71,3.28-3.71Zm-16.89,29.41h8.44c5.29-.2,8.8-3.86,9.15-10.46.22-4.08-2.53-7-6.92-7l-8,0-2.72,17.39Zm62,28.45c1-.85,1.92-1.3,1.78-.24l-.34,2.54c-.17,1.33.36,2,1.59,2h9.22c1.55,0,2.31-.63,2.69-3L323,96.51c.28-1.79-.15-2.66-1.51-2.66H311.32c-.92,0-1.36.51-1.6,1.9l-.37,2.2c-.2,1.14-.72,1.34-1.21.19-1.72-4.07-6.11-5.9-12.25-5.77-14.22.29-23.8,11.08-24.82,24.91-.8,10.7,6.87,19.1,17,19.1,7.33,0,10.61-2.18,14.3-5.54Zm-7.71-5.47a9.26,9.26,0,0,1-9.49-10.86,13.24,13.24,0,0,1,12.73-10.86,9.26,9.26,0,0,1,9.49,10.86,13.24,13.24,0,0,1-12.73,10.86ZM341,93.73h-9.31c-1.93,0-2.71,1.41-2.1,3.21l11.6,34-11.43,16.16c-.95,1.35-.22,2.58,1.13,2.58h10.5a3.21,3.21,0,0,0,3.12-1.53l35.68-51.18c1.1-1.58.58-3.23-1.22-3.23H369c-1.7,0-2.39.67-3.37,2.09l-14.88,21.59-6.62-21.63C343.76,94.42,342.79,93.73,341,93.73Z"/>
      <path class="cls-2" d="M417.33,73c9.39,0,18.06,5.1,16.87,17.8-1.4,15.06-9.52,23.45-22.29,23.49H400.78c-1.61,0-2.38,1.3-2.8,4L395.83,132c-.33,2.07-1.39,3.09-3,3.09H382.5c-1.66,0-2.23-1.06-1.86-3.42l8.57-54.95c.42-2.7,1.46-3.71,3.29-3.71Zm-16.9,29.41h8.45c5.28-.2,8.79-3.86,9.15-10.46.21-4.08-2.54-7-6.92-7l-7.95,0-2.73,17.39Zm62,28.45c1-.85,1.91-1.3,1.77-.24l-.33,2.54c-.18,1.33.35,2,1.59,2h9.21c1.55,0,2.31-.63,2.69-3L483,96.51c.28-1.79-.15-2.66-1.51-2.66H471.37c-.91,0-1.36.51-1.59,1.9L469.4,98c-.2,1.14-.72,1.34-1.21.19-1.72-4.07-6.1-5.9-12.25-5.77-14.21.29-23.8,11.08-24.82,24.91-.79,10.7,6.87,19.1,17,19.1,7.33,0,10.61-2.18,14.3-5.54Zm-7.71-5.47a9.25,9.25,0,0,1-9.49-10.86,13.23,13.23,0,0,1,12.72-10.86,9.25,9.25,0,0,1,9.49,10.86,13.23,13.23,0,0,1-12.72,10.86Zm42.5,9.88H486.56a1.26,1.26,0,0,1-1.31-1.48l9.35-59.19a1.84,1.84,0,0,1,1.77-1.47H507a1.25,1.25,0,0,1,1.3,1.47L499,133.77A1.84,1.84,0,0,1,497.19,135.25Z"/>
      <path class="cls-3" d="M119,51h27.88c7.85,0,17.17.26,23.4,5.75,4.16,3.67,6.34,9.52,5.84,15.8-1.71,21.28-14.45,33.21-31.52,33.21H130.81c-2.34,0-3.89,1.55-4.55,5.75l-3.84,24.4c-.25,1.59-.93,2.52-2.19,2.63H103.06c-1.9,0-2.58-1.46-2.08-4.61l12.36-78.3C113.84,52.49,115.55,51,119,51Z"/>
      <path class="cls-4" d="M126.66,109l4.87-30.82c.42-2.7,1.9-4,4.85-4h27.85a27.29,27.29,0,0,1,11.25,2c-2.8,19-15,29.48-31.1,29.48H130.63C128.82,105.75,127.47,106.67,126.66,109Z"/>
    </g>
  </g>
</svg>
