<svg id="Capa_1" data-name="Capa 1" xmlns="http://www.w3.org/2000/svg" viewBox="0 0 141.73 141.73"><defs><style>.cls-1{fill:#00b8ab;}</style></defs><path class="cls-1" d="M107.26,71a38.7,38.7,0,1,0-38.69,38.69h0A38.74,38.74,0,0,0,107.26,71ZM68.55,107.41A36.4,36.4,0,1,1,105,71h0a36.43,36.43,0,0,1-36.41,36.39Z"/><path class="cls-1" d="M110.73,38.06v-.17h-.15A48.57,48.57,0,0,0,74.9,22.3c-1.11,0-2.23,0-3.33.11s-2-.1-3-.1a48.7,48.7,0,1,0,0,97.39c1.1,0,2.2,0,3.29-.11,1,.08,2,.1,3.07.1a48.66,48.66,0,0,0,35.82-81.63Zm3.38,15.74H118A45.93,45.93,0,0,1,121,66h-4A48.25,48.25,0,0,0,114.11,53.8Zm2.9-2.29h-3.84a47.57,47.57,0,0,0-7-11.32h3.34A46.17,46.17,0,0,1,117,51.51Zm-9.63-13.62h-3v.21A48.74,48.74,0,0,0,88.76,26.72,46.39,46.39,0,0,1,107.38,37.89ZM68.55,117.41a49,49,0,0,1-5.28-.29,45.2,45.2,0,0,1-8.61-1.83,46.4,46.4,0,0,1-.22-88.47A44.8,44.8,0,0,1,63,25h0a46.21,46.21,0,0,1,5.52-.33c1,0,2,0,3,.1a46.39,46.39,0,0,1,.26,92.57C70.75,117.37,69.65,117.41,68.55,117.41ZM89,115.21a48.08,48.08,0,0,0,9.1-5.49h2.37A46,46,0,0,1,89,115.21Zm14.64-7.8h-2.77a48.38,48.38,0,0,0,7.87-8.91h3.52a46.06,46.06,0,0,1-8.62,8.91Zm10.22-11.19h-3.63a48.46,48.46,0,0,0,5.15-11.75h4a47.07,47.07,0,0,1-5.48,11.74Zm6.1-14.06h-4A48.57,48.57,0,0,0,117.25,71c0-.91,0-1.81-.07-2.69h4c0,.88.07,1.77.07,2.68a45.48,45.48,0,0,1-1.36,11.14Z"/><path class="cls-1" d="M71,48.6V54a13.74,13.74,0,0,1,7,2.12l-1,5.56A13.34,13.34,0,0,0,71,59.27v8.95c5.26,2.63,8.24,4.65,8.24,10,0,5-3.43,8.6-8.44,9.51v5.31H67V87.94c-3.95-.2-7.44-1.37-9.06-2.53L58.71,80A17.72,17.72,0,0,0,67,82.68V72.92l-.56-.3c-4.4-2.18-7.79-4-7.79-9.36,0-5.66,3.74-8.49,8.55-9.2V48.6H71M67.16,66.25V59.57a3,3,0,0,0-2.43,3.13c0,1.37.41,2.28,2.43,3.55m3.59,15.87A3.84,3.84,0,0,0,73,78.33c0-1.77-.66-2.58-2.28-3.54v7.33M71,46H67.16a2.59,2.59,0,0,0-2.59,2.59V52A11.14,11.14,0,0,0,56,63.26c0,6.63,4.26,9.19,8.35,11.24v5.15a15.57,15.57,0,0,1-4.3-1.86,2.66,2.66,0,0,0-1.36-.38,2.59,2.59,0,0,0-2.56,2.21L55.34,85a2.6,2.6,0,0,0,1,2.49,19.34,19.34,0,0,0,8,2.77v2.76A2.59,2.59,0,0,0,67,95.64h3.79a2.59,2.59,0,0,0,2.59-2.59V89.74a12,12,0,0,0,8.45-11.51c0-6.32-3.48-9.08-8.25-11.6v-4a18.85,18.85,0,0,1,2.09,1.18,2.59,2.59,0,0,0,3.94-1.75l1-5.56a2.57,2.57,0,0,0-1.11-2.59,15.11,15.11,0,0,0-5.88-2.29v-3A2.59,2.59,0,0,0,71,46Z"/></svg>