<?xml version="1.0" encoding="utf-8"?>
<!-- Generator: Adobe Illustrator 25.2.0, SVG Export Plug-In . SVG Version: 6.00 Build 0)  -->
<svg version="1.1" id="Capa_1" xmlns="http://www.w3.org/2000/svg" xmlns:xlink="http://www.w3.org/1999/xlink" x="0px" y="0px"
	 viewBox="0 0 226.8 226.8" style="enable-background:new 0 0 226.8 226.8;" xml:space="preserve">
<style type="text/css">
	.st0{fill:#FFFFFF;}
</style>
<g id="tel">
	<path class="st0" d="M14.2,118.2v-9.8c0.1-1.2,0.2-2.5,0.3-3.7c0.3-3.9,0.9-7.8,1.7-11.6c9.3-44.5,47.6-77,93-78.9
		c54.7-2.3,101,40.1,103.3,94.9c0,0.4,0,0.8,0,1.2c0.1,2.4,0,4.9-0.1,7.4c-0.2,3.8-0.5,7.5-1.1,11.2c-6,37.7-33,68.6-69.5,79.6
		c-7.2,2.2-14.5,3.5-22,3.9c-0.8,0-1.7,0.1-2.5,0.2h-8c-0.1,0-0.3-0.1-0.4-0.1c-2.1,0-4.2-0.2-6.3-0.5c-4.9-0.5-9.7-1.4-14.5-2.6
		c-35-9.2-62.2-36.7-71.1-71.8c-1.3-5.1-2.2-10.4-2.6-15.7L14.2,118.2z M68.4,83.5c0,1.1,0.1,2,0.1,2.9c0.2,2.8,0.4,5.7,0.9,8.6
		c1.3,7.9,3.9,15.6,7.5,22.7c10.3,20,29.1,34.3,51.1,39.1c3.2,0.7,6.5,1.2,9.9,1.5c1.5,0.1,2.9,0.2,4.4,0.2c1.1,0.1,2.3,0,3.5-0.2
		c1.7-0.4,3.2-1.3,4.5-2.6c1.6-1.8,3.4-3.4,5.1-5.1c1.9-1.9,3-4.5,3.1-7.2c0-1.5-0.2-2.8-0.8-4.2c-1.3-3.6-4.2-6.5-7.9-7.5
		c-3.5-1.1-7-1.9-10.6-2.9c-1.8-0.6-3.6-0.6-5.4-0.4c-2.3,0.3-4.4,1.5-6.1,3.1c-1.1,1.2-2.3,2.3-3.5,3.6c-0.2,0.3-0.7,0.4-1.1,0.2
		c-15.2-4.4-27-16.3-31.4-31.4c-0.2-0.3,0-0.7,0.2-1c1.3-1.2,2.6-2.4,3.7-3.7c2.7-2.7,3.7-6.6,2.7-10.3c-0.9-3.8-2.1-7.5-3.1-11.3
		c-1.3-5.1-7-9.7-13-8.9c-2.3,0.2-4.3,1.2-5.9,2.8c-2,2-4,4-6.1,6.1c-0.4,0.3-0.7,0.8-1,1.3C68.6,80.2,68.2,81.8,68.4,83.5z"/>
</g>
</svg>
