<svg id="Capa_1" data-name="Capa 1" xmlns="http://www.w3.org/2000/svg" viewBox="0 0 141.73 141.73"><defs><style>.cls-1{fill:none;stroke:#00b9ac;stroke-linecap:round;stroke-linejoin:round;stroke-width:3px;}</style></defs><path class="cls-1" d="M95.84,97.36,86.05,111.8c-10-4.25-18.31-7.55-18.55-7.64-.26.09-8.65,3.44-18.77,7.73L38.94,97.46,67.48,83.71h0Z"/><path class="cls-1" d="M109.28,77.53,99.84,91.46c-4.21-1.88-8.59-3.77-12.72-5.51l0,0c-10.49-4.44-19.33-8-19.58-8.08-.26.1-8.61,3.44-18.71,7.71l-.06,0c-4.45,1.88-9.22,3.93-13.79,6L25.5,77.64l42-20.23h0Z"/><path class="cls-1" d="M123.46,56.81,67.51,29.86h0l-55.95,27c3.22,4.7,6.21,9,9.44,13.76C36,62.86,67,50.49,67.49,50.3,68,50.49,99,62.86,114,70.57Z"/></svg>