<?xml version="1.0" encoding="utf-8"?>
<!-- Generator: Adobe Illustrator 25.2.0, SVG Export Plug-In . SVG Version: 6.00 Build 0)  -->
<svg version="1.1" id="Capa_1" xmlns="http://www.w3.org/2000/svg" xmlns:xlink="http://www.w3.org/1999/xlink" x="0px" y="0px"
	 viewBox="0 0 226.8 226.8" style="enable-background:new 0 0 226.8 226.8;" xml:space="preserve">
<style type="text/css">
	.st0{fill:#FFFFFF;}
</style>
<g id="whatsapp">
	<path class="st0" d="M117.9,64.9c-25.5,0-46.2,20.6-46.2,46.1c0,8.5,2.3,16.9,6.8,24.1l1.2,2L75,154.3l17.3-4.6l2,1.2
		c21.9,13.1,50.3,5.9,63.3-16.1c13.1-21.9,5.9-50.3-16.1-63.3C134.4,67.2,126.3,64.9,117.9,64.9L117.9,64.9z M145,128.6
		c-1.7,4.2-6,6.9-10.3,7.7c-4.1,0.8-7.6-0.5-11.4-1.8c-3.4-1.2-6.7-2.7-9.8-4.6c-6.1-3.8-11.4-8.7-15.7-14.6
		c-1.3-1.8-2.5-3.6-3.6-5.5c-1.5-2.5-2.7-5.2-3.5-8c-0.3-1.2-0.4-2.4-0.4-3.6c-0.1-4.4,1.7-8.5,5-11.4c2-1.6,4.9-2.3,7.1-1.1
		c2.4,1.3,3.6,4.8,4.8,7.2c0.9,1.9,1.9,4.3,1.5,6.4s-2,3.9-3.3,5.4c-0.9,0.8-1,2.1-0.3,3.1c4.2,7.2,10.7,12.8,18.5,15.8
		c0.9,0.5,2,0.3,2.6-0.6c1.4-1.7,2.7-5,4.8-5.9c2.8-1.1,5.8,0.4,8.2,1.8c2.2,1.3,5.8,2.9,6.4,5.6C145.7,126,145.6,127.4,145,128.6z"
		/>
	<path class="st0" d="M113.4,14.2c-54.8,0-99.2,44.4-99.2,99.2s44.4,99.2,99.2,99.2s99.2-44.4,99.2-99.2c0,0,0,0,0,0
		C212.6,58.6,168.2,14.2,113.4,14.2z M117.9,168.2c-9.5,0-18.8-2.4-27.1-6.9l-31,8.3l8.3-30.9c-15.2-27.5-5.2-62.2,22.4-77.4
		s62.2-5.2,77.4,22.4c15.2,27.5,5.2,62.2-22.4,77.4C137,165.7,127.6,168.2,117.9,168.2L117.9,168.2z"/>
</g>
</svg>
