<?xml version="1.0" encoding="utf-8"?>
<!-- Generator: Adobe Illustrator 25.2.0, SVG Export Plug-In . SVG Version: 6.00 Build 0)  -->
<svg version="1.1" id="Capa_1" xmlns="http://www.w3.org/2000/svg" xmlns:xlink="http://www.w3.org/1999/xlink" x="0px" y="0px"
	 viewBox="0 0 226.8 226.8" style="enable-background:new 0 0 226.8 226.8;" xml:space="preserve">
<style type="text/css">
	.st0{fill:#FFFFFF;}
</style>
<g id="youTube">
	<path class="st0" d="M130.7,115.5L103.4,129c-1.1,0.6-4.7-0.2-4.7-1.4V99.9c0-1.2,3.7-2,4.7-1.4l26.1,14.2
		C130.6,113.3,131.8,114.9,130.7,115.5z"/>
	<path class="st0" d="M113.4,14.2c-54.8,0-99.2,44.4-99.2,99.2s44.4,99.2,99.2,99.2s99.2-44.4,99.2-99.2c0,0,0,0,0,0
		C212.6,58.6,168.2,14.2,113.4,14.2C113.4,14.2,113.4,14.2,113.4,14.2z M166.5,127.6c0,13.2-10.7,23.8-23.8,23.8l0,0H81.8
		c-13.2,0-23.8-10.7-23.8-23.8c0,0,0,0,0,0V99.2c0-13.2,10.7-23.8,23.8-23.8h60.9c13.2,0,23.8,10.7,23.8,23.8V127.6z"/>
</g>
</svg>
